<?xml version="1.0" encoding="UTF-8" standalone="no"?><!DOCTYPE svg PUBLIC "-//W3C//DTD SVG 1.1//EN" "http://www.w3.org/Graphics/SVG/1.1/DTD/svg11.dtd"><svg width="100%" height="100%" viewBox="0 0 1000 1000" version="1.1" xmlns="http://www.w3.org/2000/svg" xmlns:xlink="http://www.w3.org/1999/xlink" xml:space="preserve" style="fill-rule:evenodd;clip-rule:evenodd;stroke-linejoin:round;stroke-miterlimit:1.41421;"><g id="Layer1"><path d="M184.586,668.286l-128.886,-128.886c-10.5,-10.5 -16.3,-24.5 -16.3,-39.4c0,-14.9 5.8,-28.9 16.3,-39.4l404.9,-404.9c10.5,-10.5 24.5,-16.3 39.4,-16.3c14.9,0 28.9,5.8 39.4,16.3l404.9,404.9c21.7,21.7 21.7,57.1 0,78.8l-128.886,128.886c-0.496,0.923 -1.075,1.801 -1.732,2.625c-0.814,1.021 -1.75,1.957 -2.771,2.771c-0.819,0.653 -1.7,1.234 -2.624,1.731l-268.887,268.887c-10.5,10.5 -24.5,16.3 -39.4,16.3c-14.9,0 -28.9,-5.8 -39.4,-16.3l-268.886,-268.886c-0.923,-0.496 -1.801,-1.075 -2.625,-1.732c-1.021,-0.814 -1.957,-1.75 -2.771,-2.771c-0.657,-0.824 -1.236,-1.702 -1.732,-2.625Zm432.214,149.214l-233.6,0l102.1,102.1c3.9,3.9 9.1,6.1 14.7,6.1c5.6,0 10.8,-2.2 14.7,-6.1l102.1,-102.1Zm-268.459,-600.141l-130.982,130.982c0.043,0.554 0.079,1.109 0.141,1.659l0,301.8l130.841,130.841c0.554,-0.043 1.109,-0.079 1.659,-0.141l300,0l1.618,0.182l130.882,-130.882l0,-301.8c0.059,-0.52 0.094,-1.043 0.134,-1.566l-131.068,-131.068c-0.523,0.04 -1.046,0.075 -1.566,0.134l-300,0c-0.55,-0.062 -1.105,-0.098 -1.659,-0.141Zm101.659,500.141l-150,0c-1.017,-0.033 -1.274,-0.017 -2.284,-0.15c-1.136,-0.149 -2.257,-0.411 -3.341,-0.779c-2.533,-0.86 -4.858,-2.305 -6.749,-4.197c-1.892,-1.891 -3.337,-4.216 -4.197,-6.749c-0.368,-1.084 -0.63,-2.205 -0.779,-3.341c-0.133,-1.01 -0.117,-1.267 -0.15,-2.284l0,-200c0.033,-1.017 0.017,-1.274 0.15,-2.284c0.149,-1.136 0.411,-2.257 0.779,-3.341c0.86,-2.533 2.305,-4.858 4.197,-6.749c1.891,-1.892 4.216,-3.337 6.749,-4.197c1.084,-0.368 2.205,-0.63 3.341,-0.779c1.01,-0.133 1.267,-0.117 2.284,-0.15l150,0c0.382,0.012 0.763,0.025 1.145,0.037c1.012,0.1 1.27,0.1 2.269,0.299c1.124,0.224 2.225,0.558 3.283,0.996c2.118,0.877 4.057,2.173 5.677,3.794c1.892,1.891 3.337,4.216 4.197,6.749c0.368,1.084 0.63,2.205 0.779,3.341c0.133,1.01 0.117,1.267 0.15,2.284l0,200c-0.033,1.017 -0.017,1.274 -0.15,2.284c-0.149,1.136 -0.411,2.257 -0.779,3.341c-0.86,2.533 -2.305,4.858 -4.197,6.749c-1.891,1.892 -4.216,3.337 -6.749,4.197c-1.084,0.368 -2.205,0.63 -3.341,0.779c-1.01,0.133 -1.267,0.117 -2.284,0.15Zm250,0l-150,0c-1.017,-0.033 -1.274,-0.017 -2.284,-0.15c-1.136,-0.149 -2.257,-0.411 -3.341,-0.779c-2.533,-0.86 -4.858,-2.305 -6.749,-4.197c-1.892,-1.891 -3.337,-4.216 -4.197,-6.749c-0.368,-1.084 -0.63,-2.205 -0.779,-3.341c-0.133,-1.01 -0.117,-1.267 -0.15,-2.284l0,-200c0.033,-1.017 0.017,-1.274 0.15,-2.284c0.149,-1.136 0.411,-2.257 0.779,-3.341c0.86,-2.533 2.305,-4.858 4.197,-6.749c1.891,-1.892 4.216,-3.337 6.749,-4.197c1.084,-0.368 2.205,-0.63 3.341,-0.779c1.01,-0.133 1.267,-0.117 2.284,-0.15l150,0c0.382,0.012 0.763,0.025 1.145,0.037c1.012,0.1 1.27,0.1 2.269,0.299c1.124,0.224 2.225,0.558 3.283,0.996c2.472,1.024 4.696,2.618 6.46,4.629c1.511,1.724 2.678,3.743 3.414,5.914c0.368,1.084 0.63,2.205 0.779,3.341c0.133,1.01 0.117,1.267 0.15,2.284l0,200c-0.033,1.017 -0.017,1.274 -0.15,2.284c-0.149,1.136 -0.411,2.257 -0.779,3.341c-0.86,2.533 -2.305,4.858 -4.197,6.749c-1.891,1.892 -4.216,3.337 -6.749,4.197c-1.084,0.368 -2.205,0.63 -3.341,0.779c-1.01,0.133 -1.267,0.117 -2.284,0.15Zm-382.5,-200l0,165l115,0l0,-165c-38.333,0 -76.667,0 -115,0Zm365,0l-115,0l0,165l115,0l0,-165Zm-500,-134.3l-102.1,102.1c-3.9,3.9 -6.1,9.2 -6.1,14.7c0,5.6 2.2,10.8 6.1,14.7l102.1,102.1l0,-233.6Zm635,0.1l0,233.5l102.1,-102.1c8.1,-8 8.1,-21.2 0,-29.3l-102.1,-102.1Zm-117.5,34.2l-400,0c-3.432,-0.387 -4.421,-0.206 -7.593,-1.733c-1.177,-0.567 -2.297,-1.271 -3.318,-2.085c-1.021,-0.814 -1.957,-1.75 -2.771,-2.771c-1.639,-2.055 -2.794,-4.454 -3.379,-7.017c-0.291,-1.273 -0.293,-2.596 -0.439,-3.894l0,-100c0.387,-3.432 0.206,-4.421 1.733,-7.593c1.141,-2.369 2.8,-4.45 4.856,-6.089c1.021,-0.814 2.141,-1.518 3.318,-2.085c1.177,-0.567 2.425,-1.004 3.699,-1.294c1.273,-0.291 2.596,-0.293 3.894,-0.439l400,0c1.298,0.146 2.596,0.293 3.894,0.439c1.233,0.431 2.522,0.727 3.699,1.294c2.369,1.141 4.45,2.8 6.089,4.856c0.814,1.021 1.518,2.141 2.085,3.318c0.567,1.177 1.004,2.425 1.294,3.699c0.291,1.273 0.293,2.596 0.439,3.894l0,100c-0.146,1.298 -0.148,2.621 -0.439,3.894c-0.29,1.274 -0.727,2.522 -1.294,3.699c-1.141,2.369 -2.8,4.45 -4.856,6.089c-1.021,0.814 -2.141,1.518 -3.318,2.085c-3.172,1.527 -4.161,1.346 -7.593,1.733Zm-17.5,-100l-365,0l0,65l365,0l0,-65Zm-65.8,-135l-102,-102c-3.9,-3.9 -9.2,-6.1 -14.7,-6.1c-5.5,0 -10.8,2.1 -14.7,6l-102.1,102.1l233.5,0Z"/></g></svg>