<?xml version="1.0" encoding="UTF-8" standalone="no"?><!DOCTYPE svg PUBLIC "-//W3C//DTD SVG 1.1//EN" "http://www.w3.org/Graphics/SVG/1.1/DTD/svg11.dtd"><svg width="100%" height="100%" viewBox="0 0 1000 1000" version="1.1" xmlns="http://www.w3.org/2000/svg" xmlns:xlink="http://www.w3.org/1999/xlink" xml:space="preserve" style="fill-rule:evenodd;clip-rule:evenodd;stroke-linejoin:round;stroke-miterlimit:1.41421;"><g id="Layer1"><path d="M944.3,460.6l-404.9,-404.9c-10.5,-10.5 -24.5,-16.3 -39.4,-16.3c-14.9,0 -28.9,5.8 -39.4,16.3l-404.9,404.9c-10.5,10.5 -16.3,24.5 -16.3,39.4c0,14.9 5.8,28.9 16.3,39.4l404.9,404.9c10.5,10.5 24.5,16.3 39.4,16.3c14.9,0 28.9,-5.8 39.4,-16.3l404.9,-404.9c21.7,-21.7 21.7,-57.1 0,-78.8Zm-471.536,-63.1l-95.515,0l-59.749,59.749l0,205.502l45,45l0,-207.751c0.146,-1.298 0.148,-2.621 0.439,-3.894c0.29,-1.274 0.727,-2.522 1.294,-3.699c1.141,-2.369 2.8,-4.45 4.856,-6.089c1.021,-0.814 2.141,-1.518 3.318,-2.085c3.172,-1.527 4.161,-1.346 7.593,-1.733c1.298,0.146 2.596,0.293 3.894,0.439c1.233,0.431 2.522,0.727 3.699,1.294c1.177,0.567 2.297,1.271 3.318,2.085c2.056,1.639 3.715,3.72 4.856,6.089c0.567,1.177 1.004,2.425 1.294,3.699c0.291,1.273 0.293,2.596 0.439,3.894l0,330c-0.062,0.55 -0.098,1.105 -0.142,1.658l87.942,87.942c3.9,3.9 9.1,6.1 14.7,6.1c5.6,0 10.8,-2.2 14.7,-6.1l87.942,-87.942c-0.044,-0.553 -0.08,-1.108 -0.142,-1.658l0,-330c0.146,-1.298 0.148,-2.621 0.439,-3.894c0.29,-1.274 0.727,-2.522 1.294,-3.699c0.567,-1.177 1.271,-2.297 2.085,-3.318c1.639,-2.056 3.72,-3.715 6.089,-4.856c3.172,-1.527 4.161,-1.346 7.593,-1.733c1.298,0.146 2.596,0.293 3.894,0.439c1.233,0.431 2.522,0.727 3.699,1.294c1.177,0.567 2.297,1.271 3.318,2.085c1.021,0.814 1.957,1.75 2.771,2.771c1.639,2.055 2.794,4.454 3.379,7.017c0.291,1.273 0.293,2.596 0.439,3.894l0,207.751l45,-45l0,-205.502l-59.749,-59.749l-95.49,0l-14.874,14.874c-0.743,0.696 -0.913,0.889 -1.721,1.51c-0.909,0.697 -1.886,1.305 -2.913,1.811c-2.4,1.184 -5.065,1.805 -7.74,1.805c-2.676,0 -5.341,-0.621 -7.741,-1.805c-1.027,-0.506 -2.004,-1.114 -2.913,-1.811c-0.808,-0.621 -0.978,-0.814 -1.721,-1.51l-14.874,-14.874Zm164.736,399.3l282.1,-282.1c8.1,-8 8.1,-21.2 0,-29.3l-404.9,-404.9c-3.9,-3.9 -9.2,-6.1 -14.7,-6.1c-5.5,0 -10.8,2.1 -14.7,6l-404.9,404.9c-3.9,3.9 -6.1,9.2 -6.1,14.7c0,5.6 2.2,10.8 6.1,14.7l282.1,282.1l0,-40.989c-1.176,-0.558 -2.29,-1.247 -3.314,-2.052c-0.364,-0.287 -0.718,-0.588 -1.059,-0.902c-0.17,-0.158 -0.334,-0.322 -0.501,-0.483l-70,-70l-0.001,-0.001c-0.157,-0.156 -0.311,-0.316 -0.462,-0.479l-0.02,-0.021l-0.01,-0.012c-0.034,-0.037 -0.069,-0.074 -0.103,-0.112l-0.004,-0.005l-0.014,-0.016l-0.059,-0.065l-0.027,-0.031l-0.016,-0.017l-0.014,-0.017l-0.025,-0.027l-0.066,-0.076l-0.01,-0.011l-0.002,-0.003c-0.034,-0.038 -0.067,-0.077 -0.1,-0.116l-0.011,-0.013l-0.017,-0.02l-0.035,-0.04l-0.043,-0.052l-0.018,-0.021l-0.007,-0.009c-0.033,-0.039 -0.065,-0.078 -0.097,-0.117l-0.006,-0.008l-0.017,-0.02l-0.047,-0.058l-0.03,-0.037l-0.016,-0.02l-0.012,-0.015l-0.019,-0.024l-0.076,-0.096l-0.001,-0.001c-0.023,-0.03 -0.046,-0.059 -0.069,-0.089l-0.006,-0.008l-0.015,-0.019l-0.03,-0.039l-0.017,-0.022l-0.013,-0.017l-0.014,-0.018l-0.016,-0.021l-0.024,-0.032l-0.021,-0.027l-0.009,-0.013l-0.005,-0.006l-0.027,-0.036l-0.032,-0.044l-0.052,-0.071l-0.005,-0.006l-0.001,-0.001l-0.015,-0.021l-0.038,-0.052l-0.004,-0.005l-0.002,-0.003c-0.958,-1.324 -1.725,-2.773 -2.28,-4.305l-0.001,-0.002l-0.001,-0.003l-0.02,-0.056l-0.011,-0.031l-0.001,-0.002l-0.003,-0.009l-0.026,-0.073l-0.031,-0.091l-0.004,-0.012l-0.001,0l-0.004,-0.013l-0.014,-0.041l-0.013,-0.038l-0.005,-0.016l-0.007,-0.021l-0.009,-0.028l-0.01,-0.028l-0.011,-0.034l-0.009,-0.027l-0.005,-0.016l-0.005,-0.016l-0.02,-0.061l-0.008,-0.024l-0.001,-0.005l-0.001,-0.004l-0.005,-0.016l-0.03,-0.092l-0.007,-0.023l-0.004,-0.014l-0.008,-0.025l-0.017,-0.055l-0.013,-0.044l-0.006,-0.022l-0.005,-0.017l-0.011,-0.035l-0.023,-0.078l-0.004,-0.016l-0.002,-0.005c-0.027,-0.095 -0.054,-0.19 -0.08,-0.286l0,-0.002l-0.001,-0.003l-0.023,-0.083l-0.015,-0.058l-0.001,-0.003l0,-0.002c-0.047,-0.178 -0.09,-0.356 -0.131,-0.535l-0.009,-0.041c-0.247,-1.094 -0.389,-2.21 -0.422,-3.331c-0.005,-0.174 -0.008,-0.347 -0.008,-0.521l0,-0.001l0,-220c0.112,-1.138 0.113,-2.293 0.336,-3.414c0.449,-2.254 1.337,-4.398 2.613,-6.308c0.636,-0.951 1.451,-1.768 2.177,-2.652l70,-70c0.884,-0.726 1.701,-1.541 2.652,-2.177c1.91,-1.276 4.054,-2.164 6.308,-2.613c1.121,-0.223 2.276,-0.224 3.414,-0.336l67.764,0l-50.138,-50.138c-0.696,-0.743 -0.889,-0.913 -1.51,-1.721c-0.697,-0.909 -1.305,-1.886 -1.811,-2.913c-1.184,-2.4 -1.805,-5.065 -1.805,-7.74c0,-2.676 0.621,-5.341 1.805,-7.741c0.506,-1.027 1.114,-2.004 1.811,-2.913c0.621,-0.808 0.814,-0.978 1.51,-1.721l99.987,-99.987c0.279,-0.261 0.549,-0.532 0.836,-0.783c0.574,-0.504 1.181,-0.969 1.816,-1.394c1.906,-1.273 4.06,-2.166 6.308,-2.613c0.75,-0.149 1.508,-0.249 2.27,-0.299c0.381,-0.024 0.763,-0.025 1.145,-0.037c0.381,0.012 0.763,0.025 1.144,0.037c0.38,0.038 0.761,0.063 1.14,0.113c0.757,0.099 1.507,0.249 2.245,0.446c2.214,0.594 4.305,1.625 6.124,3.02c0.808,0.621 0.978,0.814 1.721,1.51l100.012,100.012c0.696,0.743 0.889,0.913 1.51,1.721c0.697,0.909 1.305,1.886 1.811,2.913c1.184,2.4 1.805,5.065 1.805,7.741c0,2.675 -0.621,5.34 -1.805,7.74c-0.506,1.027 -1.114,2.004 -1.811,2.913c-0.621,0.808 -0.814,0.978 -1.51,1.721l-50.113,50.113l67.739,0l3.414,0.336c2.899,0.88 3.752,0.905 6.308,2.613c0.951,0.636 1.768,1.451 2.652,2.177l70,70c0.726,0.884 1.541,1.701 2.177,2.652c1.276,1.91 2.164,4.054 2.613,6.308c0.223,1.121 0.224,2.276 0.336,3.414l0,220l0,0.001c0,0.174 -0.003,0.347 -0.008,0.521c-0.033,1.121 -0.175,2.239 -0.422,3.332l-0.009,0.04c-0.04,0.178 -0.084,0.356 -0.13,0.532l-0.001,0.005l-0.002,0.005l-0.014,0.056l-0.022,0.079l-0.002,0.007l-0.001,0.004c-0.025,0.094 -0.052,0.189 -0.079,0.283l-0.002,0.006l-0.006,0.021l-0.021,0.073l-0.01,0.033l-0.006,0.019l-0.007,0.024l-0.012,0.042l-0.016,0.051l-0.009,0.029l-0.005,0.016l-0.006,0.021l-0.027,0.085l-0.008,0.023l-0.001,0.006l-0.001,0.003l-0.005,0.015l-0.023,0.07l-0.006,0.019l-0.004,0.013l-0.008,0.023l-0.012,0.038l-0.011,0.032l-0.008,0.024l-0.006,0.018l-0.006,0.019l-0.015,0.044l-0.012,0.035l-0.004,0.011l-0.001,0.002l-0.017,0.05l-0.018,0.053l-0.023,0.064l-0.006,0.018l-0.002,0.005l-0.01,0.028l-0.019,0.052l-0.002,0.007l-0.002,0.006c-0.555,1.53 -1.321,2.977 -2.277,4.299l-0.004,0.005l-0.007,0.009l-0.035,0.048l-0.014,0.019l-0.002,0.003l-0.014,0.019l-0.043,0.058l-0.025,0.034l-0.034,0.046l-0.006,0.008l-0.008,0.011l-0.019,0.024l-0.026,0.035l-0.017,0.023l-0.013,0.016l-0.011,0.015l-0.019,0.024l-0.032,0.042l-0.013,0.016l-0.005,0.007c-0.023,0.03 -0.046,0.06 -0.07,0.09l-0.005,0.006l-0.072,0.091l-0.018,0.022l-0.013,0.017l-0.018,0.022l-0.028,0.035l-0.043,0.052l-0.021,0.026l-0.008,0.01c-0.03,0.036 -0.06,0.073 -0.09,0.109l-0.012,0.015l-0.031,0.036l-0.029,0.035l-0.021,0.025l-0.032,0.037l-0.021,0.026l-0.005,0.005l-0.026,0.03l-0.061,0.071l-0.067,0.076l-0.007,0.009l-0.003,0.002c-0.089,0.102 -0.18,0.202 -0.271,0.302c-0.027,0.028 -0.053,0.056 -0.08,0.084c-0.125,0.134 -0.253,0.267 -0.383,0.397l-0.02,0.02l-70,70c-0.167,0.161 -0.331,0.325 -0.501,0.483c-0.341,0.314 -0.695,0.615 -1.059,0.902c-1.024,0.805 -2.138,1.494 -3.314,2.052l0,40.989Zm-129.484,-429.552l67.235,-67.235l-75.264,-75.264c-25.079,25.079 -50.159,50.159 -75.238,75.239l75.263,75.263l7.236,-7.235c0.248,-0.264 0.504,-0.52 0.768,-0.768Z"/></g></svg>