<?xml version="1.0" encoding="UTF-8" standalone="no"?><!DOCTYPE svg PUBLIC "-//W3C//DTD SVG 1.1//EN" "http://www.w3.org/Graphics/SVG/1.1/DTD/svg11.dtd"><svg width="100%" height="100%" viewBox="0 0 1000 1000" version="1.1" xmlns="http://www.w3.org/2000/svg" xmlns:xlink="http://www.w3.org/1999/xlink" xml:space="preserve" style="fill-rule:evenodd;clip-rule:evenodd;stroke-linejoin:round;stroke-miterlimit:1.41421;"><g id="Layer1"><path d="M944.3,460.6l-404.9,-404.9c-10.5,-10.5 -24.5,-16.3 -39.4,-16.3c-14.9,0 -28.9,5.8 -39.4,16.3l-404.9,404.9c-10.5,10.5 -16.3,24.5 -16.3,39.4c0,14.9 5.8,28.9 16.3,39.4l404.9,404.9c10.5,10.5 24.5,16.3 39.4,16.3c14.9,0 28.9,-5.8 39.4,-16.3l404.9,-404.9c21.7,-21.7 21.7,-57.1 0,-78.8Zm-444.3,-386.2c5.5,0 10.8,2.2 14.7,6.1l404.9,404.9c8.1,8.1 8.1,21.3 0,29.3l-404.9,404.9c-3.9,3.9 -9.1,6.1 -14.7,6.1c-5.6,0 -10.8,-2.2 -14.7,-6.1l-404.9,-404.9c-3.9,-3.9 -6.1,-9.1 -6.1,-14.7c0,-5.5 2.2,-10.8 6.1,-14.7l404.9,-404.9c3.9,-3.9 9.2,-6 14.7,-6Zm50,663.1l-100,0c-1.298,-0.146 -2.621,-0.148 -3.894,-0.439c-1.274,-0.29 -2.522,-0.727 -3.699,-1.294c-2.369,-1.141 -4.45,-2.8 -6.089,-4.856c-0.814,-1.021 -1.518,-2.141 -2.085,-3.318c-1.527,-3.172 -1.346,-4.161 -1.733,-7.593l0,-62.751l-2.5,-2.5l-37.626,37.625c-1.021,0.815 -1.957,1.749 -3.063,2.444c-1.106,0.695 -2.298,1.269 -3.531,1.7c-2.482,0.868 -5.127,1.166 -7.739,0.872c-1.298,-0.146 -2.588,-0.441 -3.821,-0.872c-3.323,-1.163 -3.894,-1.99 -6.594,-4.144l-60,-60c-2.154,-2.7 -2.981,-3.271 -4.144,-6.594c-0.431,-1.233 -0.726,-2.523 -0.872,-3.821c-0.146,-1.298 -0.146,-2.62 0,-3.918c0.294,-2.613 1.174,-5.125 2.572,-7.352c0.695,-1.106 1.629,-2.042 2.444,-3.063l37.625,-37.626l-2.5,-2.5l-62.751,0c-1.298,-0.146 -2.621,-0.148 -3.894,-0.439c-1.274,-0.29 -2.522,-0.727 -3.699,-1.294c-2.369,-1.141 -4.45,-2.8 -6.089,-4.856c-0.814,-1.021 -1.518,-2.141 -2.085,-3.318c-1.527,-3.172 -1.346,-4.161 -1.733,-7.593l0,-100c0.387,-3.432 0.206,-4.421 1.733,-7.593c1.141,-2.369 2.8,-4.45 4.856,-6.089c1.021,-0.814 2.141,-1.518 3.318,-2.085c1.177,-0.567 2.425,-1.004 3.699,-1.294c1.273,-0.291 2.596,-0.293 3.894,-0.439l62.751,0l2.5,-2.5l-37.625,-37.626c-2.154,-2.7 -2.981,-3.271 -4.144,-6.594c-0.431,-1.233 -0.726,-2.523 -0.872,-3.821c-0.146,-1.298 -0.146,-2.62 0,-3.918c0.294,-2.613 1.174,-5.125 2.572,-7.352c0.695,-1.106 1.629,-2.042 2.444,-3.063l60,-60c1.021,-0.815 1.957,-1.749 3.063,-2.444c1.106,-0.695 2.298,-1.269 3.531,-1.7c2.482,-0.868 5.127,-1.166 7.739,-0.872c1.298,0.146 2.588,0.441 3.821,0.872c3.323,1.163 3.894,1.99 6.594,4.144l37.626,37.625l2.5,-2.5l0,-72.751c0.146,-1.298 0.148,-2.621 0.439,-3.894c0.585,-2.563 1.74,-4.962 3.379,-7.017c0.814,-1.021 1.75,-1.957 2.771,-2.771c1.021,-0.814 2.141,-1.518 3.318,-2.085c3.172,-1.527 4.161,-1.346 7.593,-1.733l100,0c3.432,0.387 4.421,0.206 7.593,1.733c2.369,1.141 4.45,2.8 6.089,4.856c0.814,1.021 1.518,2.141 2.085,3.318c0.567,1.177 1.004,2.425 1.294,3.699c0.291,1.273 0.293,2.596 0.439,3.894l0,72.751l2.5,2.5l37.626,-37.625c1.021,-0.815 1.957,-1.749 3.063,-2.444c2.227,-1.398 4.739,-2.278 7.352,-2.572c1.298,-0.146 2.62,-0.146 3.918,0c1.298,0.146 2.547,0.581 3.821,0.872c1.177,0.567 2.354,1.134 3.531,1.7l3.063,2.444l60,60c0.815,1.021 1.749,1.957 2.444,3.063c0.695,1.106 1.269,2.298 1.7,3.531c0.868,2.482 1.166,5.127 0.872,7.739c-0.146,1.298 -0.441,2.588 -0.872,3.821c-1.163,3.323 -1.99,3.894 -4.144,6.594l-37.625,37.626l2.5,2.5l62.751,0c3.432,0.387 4.422,0.206 7.593,1.733c1.177,0.567 2.297,1.271 3.318,2.085c2.056,1.639 3.715,3.72 4.856,6.089c0.567,1.177 1.004,2.425 1.294,3.699c0.291,1.273 0.293,2.596 0.439,3.894l0,100c-0.146,1.298 -0.148,2.621 -0.439,3.894c-0.29,1.274 -0.727,2.522 -1.294,3.699c-1.141,2.369 -2.8,4.45 -4.856,6.089c-1.021,0.814 -2.141,1.518 -3.318,2.085c-3.171,1.527 -4.161,1.346 -7.593,1.733l-62.751,0l-2.5,2.5l37.625,37.626c0.815,1.021 1.749,1.957 2.444,3.063c0.695,1.106 1.269,2.298 1.7,3.531c0.868,2.482 1.166,5.127 0.872,7.739c-0.146,1.298 -0.441,2.588 -0.872,3.821c-1.163,3.323 -1.99,3.894 -4.144,6.594l-60,60c-1.021,0.815 -1.957,1.749 -3.063,2.444c-1.106,0.695 -2.298,1.269 -3.531,1.7c-2.482,0.868 -5.127,1.166 -7.739,0.872c-1.298,-0.146 -2.588,-0.441 -3.821,-0.872c-3.323,-1.163 -3.894,-1.99 -6.594,-4.144l-37.626,-37.625l-2.5,2.5l0,62.751c-0.387,3.432 -0.206,4.421 -1.733,7.593c-0.567,1.177 -1.271,2.297 -2.085,3.318c-0.814,1.021 -1.75,1.957 -2.771,2.771c-2.055,1.639 -4.454,2.794 -7.017,3.379c-1.273,0.291 -2.595,0.293 -3.894,0.439Zm-17.5,-450l-65,0l0,62.5c-0.112,1.138 -0.113,2.293 -0.336,3.414c-0.449,2.254 -1.337,4.398 -2.613,6.308c-0.636,0.951 -1.451,1.768 -2.177,2.652l-20,20c-2.7,2.154 -3.271,2.981 -6.594,4.144c-1.233,0.431 -2.523,0.726 -3.821,0.872c-1.298,0.146 -2.62,0.146 -3.918,0c-2.613,-0.294 -5.125,-1.174 -7.352,-2.572c-1.106,-0.695 -2.042,-1.629 -3.063,-2.444l-37.626,-37.625l-35.251,35.251l37.625,37.626c0.815,1.021 1.749,1.957 2.444,3.063c0.695,1.106 1.269,2.298 1.7,3.531c0.868,2.482 1.166,5.127 0.872,7.739c-0.146,1.298 -0.441,2.588 -0.872,3.821c-1.163,3.323 -1.99,3.894 -4.144,6.594l-20,20c-0.884,0.726 -1.701,1.541 -2.652,2.177c-1.91,1.276 -4.054,2.164 -6.308,2.613c-1.121,0.223 -2.275,0.224 -3.414,0.336l-52.5,0l0,65l52.5,0c1.139,0.112 2.293,0.113 3.414,0.336c2.254,0.449 4.398,1.337 6.308,2.613c0.951,0.636 1.768,1.451 2.652,2.177l20,20c0.815,1.021 1.749,1.957 2.444,3.063c1.398,2.227 2.278,4.739 2.572,7.352c0.146,1.298 0.146,2.62 0,3.918c-0.146,1.298 -0.441,2.588 -0.872,3.821c-1.163,3.323 -1.99,3.894 -4.144,6.594l-37.625,37.626l35.251,35.251l37.626,-37.625c1.021,-0.815 1.957,-1.749 3.063,-2.444c2.227,-1.398 4.739,-2.278 7.352,-2.572c1.298,-0.146 2.62,-0.146 3.918,0c1.298,0.146 2.547,0.581 3.821,0.872c1.177,0.567 2.354,1.134 3.531,1.7l3.063,2.444l20,20c0.726,0.884 1.541,1.701 2.177,2.652c1.276,1.91 2.164,4.054 2.613,6.308c0.223,1.121 0.224,2.276 0.336,3.414l0,52.5l65,0l0,-52.5c0.112,-1.138 0.113,-2.293 0.336,-3.414c0.449,-2.254 1.337,-4.398 2.613,-6.308c0.636,-0.951 1.451,-1.768 2.177,-2.652l20,-20c2.7,-2.154 3.271,-2.981 6.594,-4.144c2.482,-0.868 5.127,-1.166 7.739,-0.872c1.298,0.146 2.588,0.441 3.821,0.872c1.233,0.431 2.425,1.005 3.531,1.7c1.106,0.695 2.042,1.629 3.063,2.444l37.626,37.625l35.251,-35.251l-37.625,-37.626c-0.815,-1.021 -1.749,-1.957 -2.444,-3.063c-0.695,-1.106 -1.269,-2.298 -1.7,-3.531c-0.868,-2.482 -1.166,-5.127 -0.872,-7.739c0.146,-1.298 0.441,-2.588 0.872,-3.821c1.163,-3.323 1.99,-3.894 4.144,-6.594l20,-20c0.884,-0.726 1.701,-1.541 2.652,-2.177c1.91,-1.276 4.054,-2.164 6.308,-2.613c1.121,-0.223 2.276,-0.224 3.414,-0.336l52.5,0l0,-65l-52.5,0c-1.138,-0.112 -2.293,-0.113 -3.414,-0.336c-2.254,-0.449 -4.398,-1.337 -6.308,-2.613c-0.951,-0.636 -1.768,-1.451 -2.652,-2.177l-20,-20c-2.154,-2.7 -2.981,-3.271 -4.144,-6.594c-0.868,-2.482 -1.166,-5.127 -0.872,-7.739c0.146,-1.298 0.441,-2.588 0.872,-3.821c0.431,-1.233 1.005,-2.425 1.7,-3.531c0.695,-1.106 1.629,-2.042 2.444,-3.063l37.625,-37.626l-35.251,-35.251l-37.626,37.625c-2.7,2.154 -3.271,2.981 -6.594,4.144c-1.233,0.431 -2.523,0.726 -3.821,0.872c-2.612,0.294 -5.257,-0.004 -7.739,-0.872c-1.233,-0.431 -2.425,-1.005 -3.531,-1.7c-1.106,-0.695 -2.042,-1.629 -3.063,-2.444l-20,-20c-0.726,-0.884 -1.541,-1.701 -2.177,-2.652c-1.276,-1.91 -2.164,-4.054 -2.613,-6.308c-0.223,-1.121 -0.224,-2.276 -0.336,-3.414l0,-62.5Zm-31.454,110.032c0.351,0.032 0.703,0.053 1.053,0.096c0.7,0.085 1.394,0.212 2.078,0.381c2.054,0.506 4.013,1.387 5.754,2.589c0.58,0.4 1.135,0.836 1.663,1.303c0.264,0.234 0.513,0.483 0.77,0.725l85.01,85.01c0.644,0.684 0.822,0.842 1.402,1.582c0.652,0.832 1.228,1.724 1.719,2.66c1.148,2.186 1.824,4.612 1.973,7.076c0.171,2.818 -0.351,5.665 -1.51,8.239c-0.578,1.285 -1.313,2.5 -2.182,3.61c-0.58,0.74 -0.758,0.898 -1.402,1.582l-84.989,84.989c-0.684,0.644 -0.842,0.822 -1.582,1.402c-0.832,0.652 -1.724,1.228 -2.66,1.719c-2.186,1.148 -4.611,1.824 -7.076,1.973c-2.817,0.171 -5.664,-0.351 -8.239,-1.51c-1.285,-0.578 -2.5,-1.313 -3.61,-2.182c-0.74,-0.58 -0.898,-0.758 -1.582,-1.402l-85.01,-85.01c-0.644,-0.684 -0.822,-0.842 -1.402,-1.582c-0.869,-1.11 -1.604,-2.325 -2.182,-3.61c-1.159,-2.575 -1.68,-5.422 -1.51,-8.239c0.149,-2.465 0.825,-4.89 1.973,-7.076c0.491,-0.936 1.067,-1.828 1.719,-2.66c0.58,-0.74 0.758,-0.898 1.402,-1.582l84.989,-84.989c0.257,-0.242 0.506,-0.491 0.77,-0.725c0.527,-0.467 1.083,-0.903 1.663,-1.303c2.032,-1.403 4.359,-2.366 6.787,-2.811c0.693,-0.127 1.394,-0.212 2.098,-0.255c0.351,-0.021 0.704,-0.021 1.056,-0.032c0.353,0.011 0.705,0.021 1.057,0.032Zm-61.297,102.457l60.262,60.262l60.24,-60.24l-60.262,-60.262c-20.08,20.08 -40.16,40.16 -60.24,60.24Z"/></g></svg>