<?xml version="1.0" encoding="UTF-8" standalone="no"?><!DOCTYPE svg PUBLIC "-//W3C//DTD SVG 1.1//EN" "http://www.w3.org/Graphics/SVG/1.1/DTD/svg11.dtd"><svg width="100%" height="100%" viewBox="0 0 1000 1000" version="1.1" xmlns="http://www.w3.org/2000/svg" xmlns:xlink="http://www.w3.org/1999/xlink" xml:space="preserve" style="fill-rule:evenodd;clip-rule:evenodd;stroke-linejoin:round;stroke-miterlimit:1.41421;"><g id="Layer1"><path d="M944.3,460.6l-404.9,-404.9c-10.5,-10.5 -24.5,-16.3 -39.4,-16.3c-14.9,0 -28.9,5.8 -39.4,16.3l-404.9,404.9c-10.5,10.5 -16.3,24.5 -16.3,39.4c0,14.9 5.8,28.9 16.3,39.4l404.9,404.9c10.5,10.5 24.5,16.3 39.4,16.3c14.9,0 28.9,-5.8 39.4,-16.3l404.9,-404.9c21.7,-21.7 21.7,-57.1 0,-78.8Zm-89.826,-40.326l-44.725,44.726l12.625,12.626c0.561,0.59 0.713,0.728 1.226,1.361c0.769,0.949 1.438,1.98 1.993,3.068c1.11,2.179 1.755,4.587 1.883,7.029c0.144,2.748 -0.37,5.52 -1.489,8.034c-0.621,1.395 -1.426,2.708 -2.387,3.895c-0.513,0.633 -0.665,0.771 -1.226,1.361l-60,60c-0.59,0.561 -0.728,0.713 -1.361,1.226c-1.187,0.961 -2.5,1.766 -3.895,2.387c-2.234,0.995 -4.673,1.513 -7.118,1.513c-2.752,0 -5.493,-0.658 -7.945,-1.907c-1.088,-0.555 -2.119,-1.224 -3.068,-1.993c-0.633,-0.513 -0.771,-0.665 -1.361,-1.226l-60,-60c-0.561,-0.59 -0.713,-0.728 -1.226,-1.361c-0.961,-1.187 -1.766,-2.5 -2.387,-3.895c-1.119,-2.514 -1.633,-5.286 -1.489,-8.034c0.128,-2.442 0.773,-4.85 1.883,-7.029c0.555,-1.088 1.224,-2.119 1.993,-3.068c0.513,-0.633 0.665,-0.771 1.226,-1.361l22.625,-22.626l-45.251,-45.251l-22.626,22.625c-0.59,0.561 -0.728,0.713 -1.361,1.226c-0.949,0.769 -1.98,1.438 -3.068,1.993c-2.452,1.249 -5.193,1.907 -7.945,1.907c-2.445,0 -4.884,-0.518 -7.118,-1.513c-1.395,-0.621 -2.708,-1.426 -3.895,-2.387c-0.633,-0.513 -0.771,-0.665 -1.361,-1.226l-17.626,-17.625l-135.251,135.251l17.625,17.626c0.561,0.59 0.713,0.728 1.226,1.361c0.769,0.949 1.438,1.98 1.993,3.068c1.249,2.452 1.907,5.193 1.907,7.945c0,2.445 -0.518,4.884 -1.513,7.118c-0.621,1.395 -1.426,2.708 -2.387,3.895c-0.513,0.633 -0.665,0.771 -1.226,1.361l-60,60c-0.59,0.561 -0.728,0.713 -1.361,1.226c-1.187,0.961 -2.5,1.766 -3.895,2.387c-2.514,1.119 -5.286,1.633 -8.034,1.489c-2.442,-0.128 -4.85,-0.773 -7.029,-1.883c-1.088,-0.555 -2.119,-1.224 -3.068,-1.993c-0.633,-0.513 -0.771,-0.665 -1.361,-1.226l-60,-60c-0.561,-0.59 -0.713,-0.728 -1.226,-1.361c-0.961,-1.187 -1.766,-2.5 -2.387,-3.895c-1.119,-2.514 -1.633,-5.286 -1.489,-8.034c0.128,-2.442 0.773,-4.85 1.883,-7.029c0.555,-1.088 1.224,-2.119 1.993,-3.068c0.513,-0.633 0.665,-0.771 1.226,-1.361l20.125,-20.126l-57.751,-57.751l-17.626,17.625c-0.59,0.561 -0.728,0.713 -1.361,1.226c-0.949,0.769 -1.98,1.438 -3.068,1.993c-2.452,1.249 -5.193,1.907 -7.945,1.907c-2.445,0 -4.884,-0.518 -7.118,-1.513c-1.395,-0.621 -2.708,-1.426 -3.895,-2.387c-0.633,-0.513 -0.771,-0.665 -1.361,-1.226l-17.626,-17.625l-87.276,87.275l342.576,342.576c3.9,3.9 9.1,6.1 14.7,6.1c5.6,0 10.8,-2.2 14.7,-6.1l404.9,-404.9c8.1,-8 8.1,-21.2 0,-29.3l-65.126,-65.126Zm-489.725,159.726l35.251,35.251l35.251,-35.251l-35.251,-35.251c-11.75,11.75 -23.501,23.501 -35.251,35.251Zm464.977,-184.474l-315.026,-315.026c-3.9,-3.9 -9.2,-6.1 -14.7,-6.1c-5.5,0 -10.8,2.1 -14.7,6l-404.9,404.9c-3.9,3.9 -6.1,9.2 -6.1,14.7c0,5.6 2.2,10.8 6.1,14.7l37.576,37.576l87.275,-87.276l-17.625,-17.626c-0.561,-0.59 -0.713,-0.728 -1.226,-1.361c-0.769,-0.949 -1.438,-1.98 -1.993,-3.068c-1.249,-2.452 -1.907,-5.193 -1.907,-7.945c0,-2.445 0.518,-4.884 1.513,-7.118c0.621,-1.395 1.426,-2.708 2.387,-3.895c0.513,-0.633 0.665,-0.771 1.226,-1.361l60,-60c0.221,-0.211 0.437,-0.427 0.664,-0.631c0.454,-0.409 0.929,-0.794 1.424,-1.153c1.978,-1.437 4.256,-2.451 6.648,-2.96c0.896,-0.19 1.807,-0.31 2.722,-0.358c0.305,-0.016 0.611,-0.016 0.916,-0.024c0.305,0.008 0.611,0.016 0.916,0.024c0.304,0.024 0.61,0.04 0.913,0.072c0.608,0.064 1.212,0.159 1.809,0.286c2.093,0.445 4.099,1.276 5.893,2.441c0.769,0.499 1.498,1.059 2.179,1.672c0.227,0.204 0.443,0.42 0.664,0.631l60,60c0.561,0.59 0.713,0.728 1.226,1.361c0.769,0.949 1.438,1.98 1.993,3.068c1.249,2.452 1.907,5.193 1.907,7.945c0,2.445 -0.518,4.884 -1.513,7.118c-0.621,1.395 -1.426,2.708 -2.387,3.895c-0.513,0.633 -0.665,0.771 -1.226,1.361l-17.625,17.626l57.751,57.751l15.126,-15.125c0.221,-0.211 0.437,-0.427 0.664,-0.631c0.454,-0.409 0.929,-0.794 1.424,-1.153c1.978,-1.437 4.256,-2.451 6.648,-2.96c0.896,-0.19 1.807,-0.31 2.722,-0.358c0.305,-0.016 0.611,-0.016 0.916,-0.024c0.305,0.008 0.611,0.016 0.916,0.024c0.304,0.024 0.61,0.04 0.913,0.072c0.608,0.064 1.212,0.159 1.809,0.286c2.093,0.445 4.099,1.276 5.893,2.441c0.769,0.499 1.498,1.059 2.179,1.672c0.227,0.204 0.443,0.42 0.664,0.631l17.626,17.625l135.251,-135.251l-17.625,-17.626c-0.561,-0.59 -0.713,-0.728 -1.226,-1.361c-0.769,-0.949 -1.438,-1.98 -1.993,-3.068c-1.249,-2.452 -1.907,-5.193 -1.907,-7.945c0,-2.445 0.518,-4.884 1.513,-7.118c0.621,-1.395 1.426,-2.708 2.387,-3.895c0.513,-0.633 0.665,-0.771 1.226,-1.361l60,-60c0.221,-0.211 0.437,-0.427 0.664,-0.631c0.454,-0.409 0.929,-0.794 1.424,-1.153c1.978,-1.437 4.256,-2.451 6.648,-2.96c0.896,-0.19 1.807,-0.31 2.722,-0.358c0.305,-0.016 0.611,-0.016 0.916,-0.024c0.305,0.008 0.611,0.016 0.916,0.024c0.304,0.024 0.61,0.04 0.913,0.072c0.912,0.096 1.815,0.263 2.7,0.5c2.066,0.554 4.027,1.489 5.757,2.746c0.495,0.359 0.97,0.744 1.424,1.153c0.227,0.204 0.443,0.42 0.664,0.631l60,60c0.561,0.59 0.713,0.728 1.226,1.361c0.961,1.187 1.766,2.5 2.387,3.895c0.995,2.234 1.513,4.673 1.513,7.118c0,2.752 -0.658,5.493 -1.907,7.945c-0.555,1.088 -1.224,2.119 -1.993,3.068c-0.513,0.633 -0.665,0.771 -1.226,1.361l-12.625,12.626l45.251,45.251l12.626,-12.625c0.221,-0.211 0.437,-0.427 0.664,-0.631c0.681,-0.613 1.41,-1.173 2.179,-1.672c2.051,-1.332 4.378,-2.225 6.793,-2.608c0.604,-0.095 1.212,-0.159 1.822,-0.191c0.305,-0.016 0.611,-0.016 0.916,-0.024c0.305,0.008 0.611,0.016 0.916,0.024c0.304,0.024 0.61,0.04 0.913,0.072c0.608,0.064 1.212,0.159 1.809,0.286c2.093,0.445 4.099,1.276 5.893,2.441c0.769,0.499 1.498,1.059 2.179,1.672c0.227,0.204 0.443,0.42 0.664,0.631l22.626,22.625l44.726,-44.725Zm-114.977,94.474l35.251,35.251l35.251,-35.251l-35.251,-35.251c-11.75,11.75 -23.501,23.501 -35.251,35.251Zm-490,-55l35.251,35.251l35.251,-35.251l-35.251,-35.251c-11.75,11.75 -23.501,23.501 -35.251,35.251Zm360,-75l35.251,35.251l35.251,-35.251l-35.251,-35.251c-11.75,11.75 -23.501,23.501 -35.251,35.251Z"/></g></svg>