<?xml version="1.0" encoding="UTF-8" standalone="no"?><!DOCTYPE svg PUBLIC "-//W3C//DTD SVG 1.1//EN" "http://www.w3.org/Graphics/SVG/1.1/DTD/svg11.dtd"><svg width="100%" height="100%" viewBox="0 0 1000 1000" version="1.1" xmlns="http://www.w3.org/2000/svg" xmlns:xlink="http://www.w3.org/1999/xlink" xml:space="preserve" style="fill-rule:evenodd;clip-rule:evenodd;stroke-linejoin:round;stroke-miterlimit:1.41421;"><g id="Layer1"><path d="M944.3,460.6l-404.9,-404.9c-10.5,-10.5 -24.5,-16.3 -39.4,-16.3c-14.9,0 -28.9,5.8 -39.4,16.3l-404.9,404.9c-10.5,10.5 -16.3,24.5 -16.3,39.4c0,14.9 5.8,28.9 16.3,39.4l404.9,404.9c10.5,10.5 24.5,16.3 39.4,16.3c14.9,0 28.9,-5.8 39.4,-16.3l404.9,-404.9c21.7,-21.7 21.7,-57.1 0,-78.8Zm-444.3,-386.2c5.5,0 10.8,2.2 14.7,6.1l404.9,404.9c8.1,8.1 8.1,21.3 0,29.3l-404.9,404.9c-3.9,3.9 -9.1,6.1 -14.7,6.1c-5.6,0 -10.8,-2.2 -14.7,-6.1l-404.9,-404.9c-3.9,-3.9 -6.1,-9.1 -6.1,-14.7c0,-5.5 2.2,-10.8 6.1,-14.7l404.9,-404.9c3.9,-3.9 9.2,-6 14.7,-6Zm-17.5,518.339l0,-292.739c0.146,-1.298 0.148,-2.621 0.439,-3.894c0.29,-1.274 0.727,-2.522 1.294,-3.699c1.141,-2.369 2.8,-4.45 4.856,-6.089c1.021,-0.814 2.141,-1.518 3.318,-2.085c3.172,-1.527 4.161,-1.346 7.593,-1.733c1.298,0.146 2.596,0.293 3.894,0.439c1.233,0.431 2.522,0.727 3.699,1.294c1.177,0.567 2.297,1.271 3.318,2.085c1.021,0.814 1.957,1.75 2.771,2.771c1.639,2.055 2.794,4.454 3.379,7.017c0.291,1.273 0.293,2.596 0.439,3.894l0,292.763l94.874,94.862c0.695,0.742 0.889,0.913 1.509,1.721c0.697,0.909 1.305,1.886 1.812,2.913c1.183,2.4 1.805,5.065 1.805,7.74c0,2.676 -0.621,5.341 -1.805,7.741c-0.506,1.027 -1.114,2.004 -1.811,2.913c-0.621,0.809 -0.814,0.979 -1.51,1.721l-100,100c-0.742,0.696 -0.912,0.889 -1.721,1.51c-0.908,0.697 -1.886,1.305 -2.913,1.811c-2.399,1.184 -5.065,1.805 -7.74,1.805c-2.675,0 -5.341,-0.621 -7.74,-1.805c-1.027,-0.506 -2.005,-1.114 -2.913,-1.811c-0.809,-0.621 -0.979,-0.814 -1.721,-1.51l-100,-100c-0.696,-0.742 -0.889,-0.912 -1.51,-1.721c-0.697,-0.908 -1.305,-1.885 -1.811,-2.913c-1.183,-2.399 -1.805,-5.064 -1.805,-7.739c0,-2.676 0.621,-5.341 1.804,-7.74c0.507,-1.028 1.114,-2.005 1.812,-2.914c0.62,-0.808 0.814,-0.978 1.509,-1.721l94.875,-94.887Zm-57.752,107.26l75.252,75.252l75.25,-75.25l-75.261,-75.252c-25.08,25.083 -50.161,50.167 -75.241,75.25Zm-123.915,-267.479c0.738,0.053 0.924,0.053 1.658,0.158c1.374,0.198 2.724,0.56 4.013,1.076c2.322,0.929 4.435,2.36 6.161,4.17c1.726,1.81 3.055,3.989 3.873,6.352c0.454,1.312 0.751,2.678 0.883,4.061c0.07,0.737 0.061,0.923 0.079,1.663l0,100c-0.007,0.278 -0.007,0.555 -0.02,0.833c-0.026,0.554 -0.079,1.108 -0.158,1.658c-0.237,1.649 -0.711,3.263 -1.403,4.779c-0.924,2.021 -2.234,3.862 -3.843,5.395c-1.608,1.534 -3.509,2.755 -5.572,3.581c-2.322,0.93 -4.839,1.353 -7.337,1.234c-2.498,-0.119 -4.963,-0.779 -7.186,-1.925c-1.481,-0.764 -2.851,-1.74 -4.057,-2.89c-1.206,-1.15 -2.246,-2.472 -3.079,-3.915c-1.112,-1.925 -1.851,-4.06 -2.167,-6.259c-0.079,-0.55 -0.132,-1.104 -0.158,-1.658c-0.013,-0.278 -0.013,-0.555 -0.02,-0.833l0,-100c0.018,-0.74 0.009,-0.926 0.079,-1.663c0.132,-1.383 0.429,-2.749 0.883,-4.061c0.818,-2.363 2.147,-4.542 3.873,-6.352c1.918,-2.012 4.314,-3.552 6.941,-4.462c1.312,-0.454 2.678,-0.751 4.061,-0.883c0.737,-0.07 0.923,-0.061 1.663,-0.079c0.278,0.007 0.555,0.013 0.833,0.02Zm400,0c0.738,0.053 0.924,0.053 1.658,0.158c1.374,0.198 2.724,0.56 4.013,1.076c2.322,0.929 4.435,2.36 6.161,4.17c1.726,1.81 3.055,3.989 3.873,6.352c0.454,1.312 0.751,2.678 0.883,4.061c0.07,0.737 0.061,0.923 0.079,1.663l0,100c-0.007,0.278 -0.007,0.555 -0.02,0.833c-0.026,0.554 -0.079,1.108 -0.158,1.658c-0.237,1.649 -0.711,3.263 -1.403,4.779c-0.924,2.021 -2.234,3.862 -3.843,5.395c-1.608,1.534 -3.509,2.755 -5.572,3.581c-1.547,0.62 -3.182,1.016 -4.841,1.175c-2.489,0.237 -5.023,-0.065 -7.387,-0.883c-2.363,-0.818 -4.542,-2.147 -6.352,-3.873c-1.206,-1.15 -2.246,-2.472 -3.079,-3.915c-1.112,-1.925 -1.851,-4.06 -2.167,-6.259c-0.079,-0.55 -0.132,-1.104 -0.158,-1.658c-0.013,-0.278 -0.013,-0.555 -0.02,-0.833l0,-100c0.018,-0.74 0.009,-0.926 0.079,-1.663c0.132,-1.383 0.429,-2.749 0.883,-4.061c0.91,-2.627 2.45,-5.023 4.462,-6.941c1.81,-1.726 3.989,-3.055 6.352,-3.873c1.312,-0.454 2.678,-0.751 4.061,-0.883c0.737,-0.07 0.923,-0.061 1.663,-0.079c0.278,0.007 0.555,0.013 0.833,0.02Zm-99.081,-149.932c0.386,0.052 0.774,0.091 1.159,0.156c1.153,0.194 2.287,0.505 3.379,0.925c2.184,0.842 4.193,2.124 5.876,3.752c1.964,1.899 3.469,4.257 4.366,6.839c0.383,1.105 0.656,2.248 0.812,3.407c0.139,1.032 0.121,1.295 0.156,2.333l0,200c-0.013,0.39 -0.013,0.78 -0.039,1.169c-0.052,0.778 -0.156,1.552 -0.312,2.317c-0.466,2.294 -1.396,4.488 -2.721,6.418c-0.883,1.286 -1.938,2.453 -3.13,3.46c-1.191,1.007 -2.517,1.853 -3.932,2.51c-2.123,0.985 -4.442,1.538 -6.781,1.616c-2.34,0.078 -4.69,-0.318 -6.875,-1.159c-1.82,-0.701 -3.519,-1.708 -5.008,-2.967c-1.788,-1.511 -3.265,-3.382 -4.321,-5.471c-0.88,-1.741 -1.465,-3.628 -1.725,-5.56c-0.139,-1.032 -0.121,-1.295 -0.156,-2.333l0,-200c0.035,-1.038 0.017,-1.301 0.156,-2.333c0.156,-1.159 0.429,-2.302 0.812,-3.407c0.897,-2.582 2.402,-4.94 4.366,-6.839c1.964,-1.9 4.371,-3.326 6.981,-4.135c1.117,-0.347 2.269,-0.581 3.433,-0.698c1.036,-0.104 1.298,-0.078 2.337,-0.078c0.389,0.026 0.778,0.052 1.167,0.078Zm-200,0c1.029,0.138 1.293,0.148 2.305,0.389c1.138,0.271 2.248,0.656 3.309,1.149c2.124,0.985 4.043,2.399 5.613,4.135c1.833,2.027 3.177,4.48 3.899,7.116c0.309,1.128 0.505,2.287 0.583,3.454c0.026,0.389 0.026,0.779 0.039,1.169l0,200c-0.013,0.39 -0.013,0.78 -0.039,1.169c-0.052,0.778 -0.156,1.552 -0.312,2.317c-0.466,2.294 -1.396,4.488 -2.721,6.418c-0.883,1.286 -1.938,2.453 -3.13,3.46c-1.787,1.511 -3.877,2.657 -6.113,3.35c-2.236,0.694 -4.607,0.932 -6.937,0.698c-1.552,-0.156 -3.082,-0.521 -4.538,-1.081c-1.82,-0.701 -3.519,-1.708 -5.008,-2.967c-1.788,-1.511 -3.265,-3.382 -4.321,-5.471c-0.88,-1.741 -1.465,-3.628 -1.725,-5.56c-0.139,-1.032 -0.121,-1.295 -0.156,-2.333l0,-200c0.035,-1.038 0.017,-1.301 0.156,-2.333c0.156,-1.159 0.429,-2.302 0.812,-3.407c0.897,-2.582 2.402,-4.94 4.366,-6.839c1.964,-1.9 4.371,-3.326 6.981,-4.135c1.117,-0.347 2.269,-0.581 3.433,-0.698c1.036,-0.104 1.298,-0.078 2.337,-0.078c0.389,0.026 0.778,0.052 1.167,0.078Z"/></g></svg>