<?xml version="1.0" encoding="UTF-8" standalone="no"?><!DOCTYPE svg PUBLIC "-//W3C//DTD SVG 1.1//EN" "http://www.w3.org/Graphics/SVG/1.1/DTD/svg11.dtd"><svg width="100%" height="100%" viewBox="0 0 1000 1000" version="1.1" xmlns="http://www.w3.org/2000/svg" xmlns:xlink="http://www.w3.org/1999/xlink" xml:space="preserve" style="fill-rule:evenodd;clip-rule:evenodd;stroke-linejoin:round;stroke-miterlimit:1.41421;"><g id="Layer1"><path d="M184.587,668.287l-128.887,-128.887c-10.5,-10.5 -16.3,-24.5 -16.3,-39.4c0,-14.9 5.8,-28.9 16.3,-39.4l404.9,-404.9c10.5,-10.5 24.5,-16.3 39.4,-16.3c14.9,0 28.9,5.8 39.4,16.3l404.9,404.9c21.7,21.7 21.7,57.1 0,78.8l-128.887,128.887c-0.495,0.922 -1.074,1.801 -1.731,2.624c-0.814,1.021 -1.75,1.957 -2.771,2.771c-0.818,0.653 -1.7,1.234 -2.624,1.731l-268.887,268.887c-10.5,10.5 -24.5,16.3 -39.4,16.3c-14.9,0 -28.9,-5.8 -39.4,-16.3l-268.887,-268.887c-0.922,-0.495 -1.801,-1.074 -2.624,-1.731c-1.021,-0.814 -1.957,-1.75 -2.771,-2.771c-0.657,-0.823 -1.236,-1.702 -1.731,-2.624Zm432.213,149.213l-233.6,0l102.1,102.1c3.9,3.9 9.1,6.1 14.7,6.1c5.6,0 10.8,-2.2 14.7,-6.1l102.1,-102.1Zm-268.458,-600.142l-130.984,130.984c0.044,0.553 0.08,1.108 0.142,1.658l0,301.8l130.842,130.842c0.553,-0.044 1.108,-0.08 1.658,-0.142l300,0l1.618,0.182l130.882,-130.882l0,-301.8c0.059,-0.52 0.094,-1.043 0.134,-1.566l-131.068,-131.068c-0.522,0.04 -1.046,0.075 -1.566,0.134l-300,0c-0.55,-0.062 -1.105,-0.098 -1.658,-0.142Zm351.658,500.142l-400,0c-1.298,-0.146 -2.621,-0.148 -3.894,-0.439c-2.563,-0.585 -4.962,-1.74 -7.017,-3.379c-2.056,-1.639 -3.715,-3.72 -4.856,-6.089c-0.567,-1.177 -1.004,-2.425 -1.294,-3.699c-0.291,-1.273 -0.439,-2.588 -0.439,-3.894c0,-1.306 0.148,-2.621 0.439,-3.894c0.29,-1.274 0.727,-2.522 1.294,-3.699c1.141,-2.369 2.8,-4.45 4.856,-6.089c2.055,-1.639 4.454,-2.794 7.017,-3.379c1.273,-0.291 2.596,-0.293 3.894,-0.439l400,0c1.298,0.146 2.596,0.293 3.894,0.439c1.233,0.431 2.522,0.727 3.699,1.294c2.369,1.141 4.45,2.8 6.089,4.856c0.814,1.021 1.518,2.141 2.085,3.318c0.567,1.177 1.004,2.425 1.294,3.699c0.291,1.273 0.439,2.588 0.439,3.894c0,2.629 -0.592,5.224 -1.733,7.593c-0.567,1.177 -1.271,2.297 -2.085,3.318c-0.814,1.021 -1.75,1.957 -2.771,2.771c-2.055,1.639 -4.454,2.794 -7.017,3.379c-1.273,0.291 -2.595,0.293 -3.894,0.439Zm0,-100l-400,0c-1.298,-0.146 -2.621,-0.148 -3.894,-0.439c-2.563,-0.585 -4.962,-1.74 -7.017,-3.379c-1.021,-0.814 -1.957,-1.75 -2.771,-2.771c-0.814,-1.021 -1.518,-2.141 -2.085,-3.318c-1.141,-2.369 -1.733,-4.964 -1.733,-7.593c0,-1.306 0.148,-2.621 0.439,-3.894c0.29,-1.274 0.727,-2.522 1.294,-3.699c1.141,-2.369 2.8,-4.45 4.856,-6.089c2.055,-1.639 4.454,-2.794 7.017,-3.379c1.273,-0.291 2.596,-0.293 3.894,-0.439l400,0c1.298,0.146 2.596,0.293 3.894,0.439c1.233,0.431 2.522,0.727 3.699,1.294c2.369,1.141 4.45,2.8 6.089,4.856c0.814,1.021 1.518,2.141 2.085,3.318c0.567,1.177 1.004,2.425 1.294,3.699c0.291,1.273 0.439,2.588 0.439,3.894c0,2.629 -0.592,5.224 -1.733,7.593c-0.567,1.177 -1.271,2.297 -2.085,3.318c-0.814,1.021 -1.75,1.957 -2.771,2.771c-2.055,1.639 -4.454,2.794 -7.017,3.379c-1.273,0.291 -2.595,0.293 -3.894,0.439Zm-517.5,-234.3l-102.1,102.1c-3.9,3.9 -6.1,9.2 -6.1,14.7c0,5.6 2.2,10.8 6.1,14.7l102.1,102.1l0,-233.6Zm635,0.1l0,233.5l102.1,-102.1c8.1,-8 8.1,-21.2 0,-29.3l-102.1,-102.1Zm-117.5,134.2l-400,0c-1.298,-0.146 -2.621,-0.148 -3.894,-0.439c-2.563,-0.585 -4.962,-1.74 -7.017,-3.379c-2.056,-1.639 -3.715,-3.72 -4.856,-6.089c-0.567,-1.177 -1.004,-2.425 -1.294,-3.699c-0.291,-1.273 -0.439,-2.588 -0.439,-3.894c0,-1.306 0.148,-2.621 0.439,-3.894c0.585,-2.563 1.74,-4.962 3.379,-7.017c0.814,-1.021 1.75,-1.957 2.771,-2.771c2.055,-1.639 4.454,-2.794 7.017,-3.379c1.273,-0.291 2.596,-0.293 3.894,-0.439l400,0c1.298,0.146 2.596,0.293 3.894,0.439c1.233,0.431 2.522,0.727 3.699,1.294c2.369,1.141 4.45,2.8 6.089,4.856c0.814,1.021 1.518,2.141 2.085,3.318c0.567,1.177 1.004,2.425 1.294,3.699c0.291,1.273 0.439,2.588 0.439,3.894c0,2.629 -0.592,5.224 -1.733,7.593c-0.567,1.177 -1.271,2.297 -2.085,3.318c-0.814,1.021 -1.75,1.957 -2.771,2.771c-2.055,1.639 -4.454,2.794 -7.017,3.379c-1.273,0.291 -2.595,0.293 -3.894,0.439Zm0,-100l-400,0c-1.298,-0.146 -2.621,-0.148 -3.894,-0.439c-2.563,-0.585 -4.962,-1.74 -7.017,-3.379c-2.056,-1.639 -3.715,-3.72 -4.856,-6.089c-0.567,-1.177 -1.004,-2.425 -1.294,-3.699c-0.291,-1.273 -0.439,-2.588 -0.439,-3.894c0,-1.306 0.148,-2.621 0.439,-3.894c0.585,-2.563 1.74,-4.962 3.379,-7.017c0.814,-1.021 1.75,-1.957 2.771,-2.771c2.055,-1.639 4.454,-2.794 7.017,-3.379c1.273,-0.291 2.596,-0.293 3.894,-0.439l400,0c1.298,0.146 2.596,0.293 3.894,0.439c1.233,0.431 2.522,0.727 3.699,1.294c2.369,1.141 4.45,2.8 6.089,4.856c0.814,1.021 1.518,2.141 2.085,3.318c0.567,1.177 1.004,2.425 1.294,3.699c0.291,1.273 0.439,2.588 0.439,3.894c0,1.306 -0.148,2.621 -0.439,3.894c-0.585,2.563 -1.74,4.962 -3.379,7.017c-0.814,1.021 -1.75,1.957 -2.771,2.771c-2.055,1.639 -4.454,2.794 -7.017,3.379c-1.273,0.291 -2.595,0.293 -3.894,0.439Zm0,-100l-400,0c-1.298,-0.146 -2.621,-0.148 -3.894,-0.439c-2.563,-0.585 -4.962,-1.74 -7.017,-3.379c-1.021,-0.814 -1.957,-1.75 -2.771,-2.771c-0.814,-1.021 -1.518,-2.141 -2.085,-3.318c-1.141,-2.369 -1.733,-4.964 -1.733,-7.593c0,-1.306 0.148,-2.621 0.439,-3.894c0.29,-1.274 0.727,-2.522 1.294,-3.699c1.141,-2.369 2.8,-4.45 4.856,-6.089c2.055,-1.639 4.454,-2.794 7.017,-3.379c1.273,-0.291 2.596,-0.293 3.894,-0.439l400,0c1.298,0.146 2.596,0.293 3.894,0.439c1.233,0.431 2.522,0.727 3.699,1.294c2.369,1.141 4.45,2.8 6.089,4.856c0.814,1.021 1.518,2.141 2.085,3.318c0.567,1.177 1.004,2.425 1.294,3.699c0.291,1.273 0.439,2.588 0.439,3.894c0,1.306 -0.148,2.621 -0.439,3.894c-0.585,2.563 -1.74,4.962 -3.379,7.017c-0.814,1.021 -1.75,1.957 -2.771,2.771c-2.055,1.639 -4.454,2.794 -7.017,3.379c-1.273,0.291 -2.595,0.293 -3.894,0.439Zm-83.3,-135l-102,-102c-3.9,-3.9 -9.2,-6.1 -14.7,-6.1c-5.5,0 -10.8,2.1 -14.7,6l-102.1,102.1l233.5,0Z"/></g></svg>