<?xml version="1.0" encoding="UTF-8" standalone="no"?><!DOCTYPE svg PUBLIC "-//W3C//DTD SVG 1.1//EN" "http://www.w3.org/Graphics/SVG/1.1/DTD/svg11.dtd"><svg width="100%" height="100%" viewBox="0 0 1000 1000" version="1.1" xmlns="http://www.w3.org/2000/svg" xmlns:xlink="http://www.w3.org/1999/xlink" xml:space="preserve" style="fill-rule:evenodd;clip-rule:evenodd;stroke-linejoin:round;stroke-miterlimit:1.41421;"><path d="M500,1000c0,0 -231.386,-330.551 -317.886,-454.123c-19.282,-27.546 -19.282,-64.208 0,-91.754c86.5,-123.572 317.886,-454.123 317.886,-454.123l85.022,121.46c0,0 -191.536,273.624 -248.921,355.602c-9.641,13.772 -9.641,32.104 0,45.876c44.113,63.019 163.899,234.141 163.899,234.141c0,0 119.786,-171.122 163.899,-234.141c9.641,-13.772 9.641,-32.104 0,-45.877c-14.191,-20.271 -32.649,-46.64 -32.649,-46.64l-131.25,187.5l-82.544,-117.921l216.272,-308.961c0,0 123.923,177.033 184.158,263.084c19.282,27.546 19.282,64.208 0,91.754c-86.5,123.572 -317.886,454.123 -317.886,454.123Z"/></svg>