<?xml version="1.0" encoding="UTF-8"?><!DOCTYPE svg PUBLIC "-//W3C//DTD SVG 1.1//EN" "http://www.w3.org/Graphics/SVG/1.1/DTD/svg11.dtd"><svg xmlns="http://www.w3.org/2000/svg" style="display:none"><symbol id="icon_analytics" viewbox="0 0 1000 1000"><path d="M944.3 460.6L539.4 55.7c-10.5-10.5-24.5-16.3-39.4-16.3-14.9 0-28.9 5.8-39.4 16.3L55.7 460.6c-10.5 10.5-16.3 24.5-16.3 39.4 0 14.9 5.8 28.9 16.3 39.4l404.9 404.9c10.5 10.5 24.5 16.3 39.4 16.3 14.9 0 28.9-5.8 39.4-16.3l404.9-404.9c21.7-21.7 21.7-57.1 0-78.8zm-89.826-40.326L809.749 465l12.625 12.626c.561.59.713.728 1.226 1.361.769.949 1.438 1.98 1.993 3.068a17.553 17.553 0 0 1 1.883 7.029c.144 2.748-.37 5.52-1.489 8.034a17.527 17.527 0 0 1-2.387 3.895c-.513.633-.665.771-1.226 1.361l-60 60c-.59.561-.728.713-1.361 1.226a17.527 17.527 0 0 1-3.895 2.387A17.545 17.545 0 0 1 750 567.5c-2.752 0-5.493-.658-7.945-1.907a17.532 17.532 0 0 1-3.068-1.993c-.633-.513-.771-.665-1.361-1.226l-60-60c-.561-.59-.713-.728-1.226-1.361a17.527 17.527 0 0 1-2.387-3.895 17.566 17.566 0 0 1-1.489-8.034c.128-2.442.773-4.85 1.883-7.029a17.532 17.532 0 0 1 1.993-3.068c.513-.633.665-.771 1.226-1.361L700.251 455 655 409.749l-22.626 22.625c-.59.561-.728.713-1.361 1.226a17.532 17.532 0 0 1-3.068 1.993A17.565 17.565 0 0 1 620 437.5c-2.445 0-4.884-.518-7.118-1.513a17.527 17.527 0 0 1-3.895-2.387c-.633-.513-.771-.665-1.361-1.226L590 414.749 454.749 550l17.625 17.626c.561.59.713.728 1.226 1.361.769.949 1.438 1.98 1.993 3.068A17.565 17.565 0 0 1 477.5 580c0 2.445-.518 4.884-1.513 7.118a17.527 17.527 0 0 1-2.387 3.895c-.513.633-.665.771-1.226 1.361l-60 60c-.59.561-.728.713-1.361 1.226a17.527 17.527 0 0 1-3.895 2.387 17.566 17.566 0 0 1-8.034 1.489 17.553 17.553 0 0 1-7.029-1.883 17.532 17.532 0 0 1-3.068-1.993c-.633-.513-.771-.665-1.361-1.226l-60-60c-.561-.59-.713-.728-1.226-1.361a17.527 17.527 0 0 1-2.387-3.895 17.566 17.566 0 0 1-1.489-8.034c.128-2.442.773-4.85 1.883-7.029a17.532 17.532 0 0 1 1.993-3.068c.513-.633.665-.771 1.226-1.361l20.125-20.126L290 489.749l-17.626 17.625c-.59.561-.728.713-1.361 1.226a17.532 17.532 0 0 1-3.068 1.993A17.565 17.565 0 0 1 260 512.5c-2.445 0-4.884-.518-7.118-1.513a17.527 17.527 0 0 1-3.895-2.387c-.633-.513-.771-.665-1.361-1.226L230 489.749l-87.276 87.275L485.3 919.6c3.9 3.9 9.1 6.1 14.7 6.1s10.8-2.2 14.7-6.1l404.9-404.9c8.1-8 8.1-21.2 0-29.3l-65.126-65.126zM364.749 580L400 615.251 435.251 580 400 544.749 364.749 580zm464.977-184.474L514.7 80.5c-3.9-3.9-9.2-6.1-14.7-6.1s-10.8 2.1-14.7 6L80.4 485.3c-3.9 3.9-6.1 9.2-6.1 14.7 0 5.6 2.2 10.8 6.1 14.7l37.576 37.576L205.251 465l-17.625-17.626c-.561-.59-.713-.728-1.226-1.361a17.532 17.532 0 0 1-1.993-3.068A17.565 17.565 0 0 1 182.5 435c0-2.445.518-4.884 1.513-7.118a17.527 17.527 0 0 1 2.387-3.895c.513-.633.665-.771 1.226-1.361l60-60c.221-.211.437-.427.664-.631a17.562 17.562 0 0 1 8.072-4.113c.896-.19 1.807-.31 2.722-.358.305-.016.611-.016.916-.024l.916.024c.304.024.61.04.913.072a17.497 17.497 0 0 1 9.881 4.399c.227.204.443.42.664.631l60 60c.561.59.713.728 1.226 1.361.769.949 1.438 1.98 1.993 3.068A17.565 17.565 0 0 1 337.5 435c0 2.445-.518 4.884-1.513 7.118a17.527 17.527 0 0 1-2.387 3.895c-.513.633-.665.771-1.226 1.361L314.749 465l57.751 57.751 15.126-15.125c.221-.211.437-.427.664-.631a17.562 17.562 0 0 1 8.072-4.113c.896-.19 1.807-.31 2.722-.358.305-.016.611-.016.916-.024l.916.024c.304.024.61.04.913.072a17.497 17.497 0 0 1 9.881 4.399c.227.204.443.42.664.631L430 525.251 565.251 390l-17.625-17.626c-.561-.59-.713-.728-1.226-1.361a17.532 17.532 0 0 1-1.993-3.068A17.565 17.565 0 0 1 542.5 360c0-2.445.518-4.884 1.513-7.118a17.527 17.527 0 0 1 2.387-3.895c.513-.633.665-.771 1.226-1.361l60-60c.221-.211.437-.427.664-.631a17.562 17.562 0 0 1 8.072-4.113c.896-.19 1.807-.31 2.722-.358.305-.016.611-.016.916-.024l.916.024c.304.024.61.04.913.072.912.096 1.815.263 2.7.5a17.55 17.55 0 0 1 7.181 3.899c.227.204.443.42.664.631l60 60c.561.59.713.728 1.226 1.361a17.527 17.527 0 0 1 2.387 3.895A17.545 17.545 0 0 1 697.5 360c0 2.752-.658 5.493-1.907 7.945a17.532 17.532 0 0 1-1.993 3.068c-.513.633-.665.771-1.226 1.361L679.749 385 725 430.251l12.626-12.625c.221-.211.437-.427.664-.631a17.487 17.487 0 0 1 10.794-4.471c.305-.016.611-.016.916-.024l.916.024c.304.024.61.04.913.072a17.497 17.497 0 0 1 9.881 4.399c.227.204.443.42.664.631L785 440.251l44.726-44.725zM714.749 490L750 525.251 785.251 490 750 454.749 714.749 490zm-490-55L260 470.251 295.251 435 260 399.749 224.749 435zm360-75L620 395.251 655.251 360 620 324.749 584.749 360z"/></symbol><symbol id="icon_dashboard" viewbox="0 0 1000 1000"><path d="M944.3 460.6L539.4 55.7c-10.5-10.5-24.5-16.3-39.4-16.3-14.9 0-28.9 5.8-39.4 16.3L55.7 460.6c-10.5 10.5-16.3 24.5-16.3 39.4 0 14.9 5.8 28.9 16.3 39.4l404.9 404.9c10.5 10.5 24.5 16.3 39.4 16.3 14.9 0 28.9-5.8 39.4-16.3l404.9-404.9c21.7-21.7 21.7-57.1 0-78.8zM500 74.4c5.5 0 10.8 2.2 14.7 6.1l404.9 404.9c8.1 8.1 8.1 21.3 0 29.3L514.7 919.6c-3.9 3.9-9.1 6.1-14.7 6.1s-10.8-2.2-14.7-6.1L80.4 514.7c-3.9-3.9-6.1-9.1-6.1-14.7 0-5.5 2.2-10.8 6.1-14.7L485.3 80.4c3.9-3.9 9.2-6 14.7-6zm-17.5 518.339V300c.146-1.298.148-2.621.439-3.894a17.497 17.497 0 0 1 9.468-11.873c3.172-1.527 4.161-1.346 7.593-1.733l3.894.439c1.233.431 2.522.727 3.699 1.294a17.541 17.541 0 0 1 6.089 4.856 17.5 17.5 0 0 1 3.379 7.017c.291 1.273.293 2.596.439 3.894v292.763l94.874 94.862c.695.742.889.913 1.509 1.721a17.582 17.582 0 0 1 1.812 2.913 17.564 17.564 0 0 1 1.805 7.74 17.51 17.51 0 0 1-3.616 10.654c-.621.809-.814.979-1.51 1.721l-100 100c-.742.696-.912.889-1.721 1.51a17.47 17.47 0 0 1-2.913 1.811A17.547 17.547 0 0 1 500 817.5c-2.675 0-5.341-.621-7.74-1.805a17.47 17.47 0 0 1-2.913-1.811c-.809-.621-.979-.814-1.721-1.51l-100-100c-.696-.742-.889-.912-1.51-1.721a17.429 17.429 0 0 1-1.811-2.913 17.556 17.556 0 0 1-1.805-7.739 17.483 17.483 0 0 1 3.616-10.654c.62-.808.814-.978 1.509-1.721l94.875-94.887zm-57.752 107.26L500 775.251l75.25-75.25-75.261-75.252-75.241 75.25zM300.833 432.52c.738.053.924.053 1.658.158 1.374.198 2.724.56 4.013 1.076a17.544 17.544 0 0 1 6.161 4.17 17.553 17.553 0 0 1 3.873 6.352c.454 1.312.751 2.678.883 4.061.07.737.061.923.079 1.663v100c-.007.278-.007.555-.02.833a17.533 17.533 0 0 1-1.561 6.437 17.546 17.546 0 0 1-3.843 5.395 17.534 17.534 0 0 1-5.572 3.581 17.547 17.547 0 0 1-7.337 1.234 17.551 17.551 0 0 1-7.186-1.925 17.54 17.54 0 0 1-7.136-6.805 17.529 17.529 0 0 1-2.325-7.917c-.013-.278-.013-.555-.02-.833V450c.018-.74.009-.926.079-1.663.132-1.383.429-2.749.883-4.061a17.553 17.553 0 0 1 3.873-6.352 17.566 17.566 0 0 1 6.941-4.462 17.522 17.522 0 0 1 4.061-.883c.737-.07.923-.061 1.663-.079l.833.02zm400 0c.738.053.924.053 1.658.158 1.374.198 2.724.56 4.013 1.076a17.544 17.544 0 0 1 6.161 4.17 17.553 17.553 0 0 1 3.873 6.352c.454 1.312.751 2.678.883 4.061.07.737.061.923.079 1.663v100c-.007.278-.007.555-.02.833a17.533 17.533 0 0 1-1.561 6.437 17.546 17.546 0 0 1-3.843 5.395 17.525 17.525 0 0 1-10.413 4.756 17.565 17.565 0 0 1-7.387-.883 17.523 17.523 0 0 1-11.598-14.047 17.41 17.41 0 0 1-.158-1.658c-.013-.278-.013-.555-.02-.833V450c.018-.74.009-.926.079-1.663.132-1.383.429-2.749.883-4.061a17.566 17.566 0 0 1 4.462-6.941 17.553 17.553 0 0 1 6.352-3.873 17.522 17.522 0 0 1 4.061-.883c.737-.07.923-.061 1.663-.079l.833.02zm-99.081-149.932c.386.052.774.091 1.159.156a17.52 17.52 0 0 1 3.379.925 17.557 17.557 0 0 1 5.876 3.752 17.56 17.56 0 0 1 4.366 6.839c.383 1.105.656 2.248.812 3.407.139 1.032.121 1.295.156 2.333v200c-.013.39-.013.78-.039 1.169a17.537 17.537 0 0 1-3.033 8.735 17.507 17.507 0 0 1-13.843 7.586 17.56 17.56 0 0 1-6.875-1.159 17.53 17.53 0 0 1-5.008-2.967 17.545 17.545 0 0 1-4.321-5.471 17.534 17.534 0 0 1-1.725-5.56c-.139-1.032-.121-1.295-.156-2.333V300c.035-1.038.017-1.301.156-2.333.156-1.159.429-2.302.812-3.407a17.56 17.56 0 0 1 4.366-6.839 17.545 17.545 0 0 1 6.981-4.135 17.47 17.47 0 0 1 3.433-.698c1.036-.104 1.298-.078 2.337-.078l1.167.078zm-200 0c1.029.138 1.293.148 2.305.389a17.535 17.535 0 0 1 8.922 5.284 17.502 17.502 0 0 1 4.482 10.57c.026.389.026.779.039 1.169v200c-.013.39-.013.78-.039 1.169a17.537 17.537 0 0 1-3.033 8.735 17.507 17.507 0 0 1-16.18 7.508 17.547 17.547 0 0 1-4.538-1.081 17.53 17.53 0 0 1-5.008-2.967 17.545 17.545 0 0 1-4.321-5.471 17.534 17.534 0 0 1-1.725-5.56c-.139-1.032-.121-1.295-.156-2.333V300c.035-1.038.017-1.301.156-2.333.156-1.159.429-2.302.812-3.407a17.56 17.56 0 0 1 4.366-6.839 17.545 17.545 0 0 1 6.981-4.135 17.47 17.47 0 0 1 3.433-.698c1.036-.104 1.298-.078 2.337-.078l1.167.078z"/></symbol><symbol id="icon_pages" viewbox="0 0 1000 1000"><path d="M184.587 668.287L55.7 539.4c-10.5-10.5-16.3-24.5-16.3-39.4 0-14.9 5.8-28.9 16.3-39.4L460.6 55.7c10.5-10.5 24.5-16.3 39.4-16.3 14.9 0 28.9 5.8 39.4 16.3l404.9 404.9c21.7 21.7 21.7 57.1 0 78.8L815.413 668.287a17.541 17.541 0 0 1-7.126 7.126L539.4 944.3c-10.5 10.5-24.5 16.3-39.4 16.3-14.9 0-28.9-5.8-39.4-16.3L191.713 675.413a17.541 17.541 0 0 1-7.126-7.126zM616.8 817.5H383.2l102.1 102.1c3.9 3.9 9.1 6.1 14.7 6.1s10.8-2.2 14.7-6.1l102.1-102.1zM348.342 217.358L217.358 348.342c.044.553.08 1.108.142 1.658v301.8l130.842 130.842c.553-.044 1.108-.08 1.658-.142h300l1.618.182L782.5 651.8V350c.059-.52.094-1.043.134-1.566L651.566 217.366c-.522.04-1.046.075-1.566.134H350c-.55-.062-1.105-.098-1.658-.142zM700 717.5H300c-1.298-.146-2.621-.148-3.894-.439a17.5 17.5 0 0 1 0-34.122c1.273-.291 2.596-.293 3.894-.439h400l3.894.439c1.233.431 2.522.727 3.699 1.294a17.493 17.493 0 0 1 9.468 11.873 17.497 17.497 0 0 1-13.167 20.955c-1.273.291-2.595.293-3.894.439zm0-100H300c-1.298-.146-2.621-.148-3.894-.439a17.5 17.5 0 0 1 0-34.122c1.273-.291 2.596-.293 3.894-.439h400l3.894.439c1.233.431 2.522.727 3.699 1.294a17.493 17.493 0 0 1 9.468 11.873 17.497 17.497 0 0 1-13.167 20.955c-1.273.291-2.595.293-3.894.439zM182.5 383.2L80.4 485.3c-3.9 3.9-6.1 9.2-6.1 14.7 0 5.6 2.2 10.8 6.1 14.7l102.1 102.1V383.2zm635 .1v233.5l102.1-102.1c8.1-8 8.1-21.2 0-29.3L817.5 383.3zM700 517.5H300c-1.298-.146-2.621-.148-3.894-.439a17.5 17.5 0 0 1 0-34.122c1.273-.291 2.596-.293 3.894-.439h400l3.894.439c1.233.431 2.522.727 3.699 1.294a17.493 17.493 0 0 1 9.468 11.873 17.497 17.497 0 0 1-13.167 20.955c-1.273.291-2.595.293-3.894.439zm0-100H300c-1.298-.146-2.621-.148-3.894-.439a17.5 17.5 0 0 1 0-34.122c1.273-.291 2.596-.293 3.894-.439h400l3.894.439c1.233.431 2.522.727 3.699 1.294a17.493 17.493 0 0 1 9.468 11.873 17.533 17.533 0 0 1 0 7.788 17.5 17.5 0 0 1-13.167 13.167c-1.273.291-2.595.293-3.894.439zm0-100H300c-1.298-.146-2.621-.148-3.894-.439a17.5 17.5 0 0 1 0-34.122c1.273-.291 2.596-.293 3.894-.439h400l3.894.439c1.233.431 2.522.727 3.699 1.294a17.493 17.493 0 0 1 9.468 11.873 17.533 17.533 0 0 1 0 7.788 17.5 17.5 0 0 1-13.167 13.167c-1.273.291-2.595.293-3.894.439zm-83.3-135l-102-102c-3.9-3.9-9.2-6.1-14.7-6.1s-10.8 2.1-14.7 6L383.2 182.5h233.5z"/></symbol><symbol id="icon_settings" viewbox="0 0 1000 1000"><path d="M944.3 460.6L539.4 55.7c-10.5-10.5-24.5-16.3-39.4-16.3-14.9 0-28.9 5.8-39.4 16.3L55.7 460.6c-10.5 10.5-16.3 24.5-16.3 39.4 0 14.9 5.8 28.9 16.3 39.4l404.9 404.9c10.5 10.5 24.5 16.3 39.4 16.3 14.9 0 28.9-5.8 39.4-16.3l404.9-404.9c21.7-21.7 21.7-57.1 0-78.8zM500 74.4c5.5 0 10.8 2.2 14.7 6.1l404.9 404.9c8.1 8.1 8.1 21.3 0 29.3L514.7 919.6c-3.9 3.9-9.1 6.1-14.7 6.1s-10.8-2.2-14.7-6.1L80.4 514.7c-3.9-3.9-6.1-9.1-6.1-14.7 0-5.5 2.2-10.8 6.1-14.7L485.3 80.4c3.9-3.9 9.2-6 14.7-6zm50 663.1H450c-1.298-.146-2.621-.148-3.894-.439a17.497 17.497 0 0 1-11.873-9.468c-1.527-3.172-1.346-4.161-1.733-7.593v-62.751l-2.5-2.5-37.626 37.625c-1.021.815-1.957 1.749-3.063 2.444a17.51 17.51 0 0 1-15.091 1.7c-3.323-1.163-3.894-1.99-6.594-4.144l-60-60c-2.154-2.7-2.981-3.271-4.144-6.594a17.57 17.57 0 0 1-.872-3.821 17.51 17.51 0 0 1 2.572-11.27c.695-1.106 1.629-2.042 2.444-3.063L345.251 570l-2.5-2.5H280c-1.298-.146-2.621-.148-3.894-.439a17.497 17.497 0 0 1-11.873-9.468c-1.527-3.172-1.346-4.161-1.733-7.593V450c.387-3.432.206-4.421 1.733-7.593a17.493 17.493 0 0 1 11.873-9.468c1.273-.291 2.596-.293 3.894-.439h62.751l2.5-2.5-37.625-37.626c-2.154-2.7-2.981-3.271-4.144-6.594a17.57 17.57 0 0 1-.872-3.821 17.51 17.51 0 0 1 2.572-11.27c.695-1.106 1.629-2.042 2.444-3.063l60-60c1.021-.815 1.957-1.749 3.063-2.444a17.51 17.51 0 0 1 15.091-1.7c3.323 1.163 3.894 1.99 6.594 4.144L430 345.251l2.5-2.5V270c.146-1.298.148-2.621.439-3.894a17.5 17.5 0 0 1 9.468-11.873c3.172-1.527 4.161-1.346 7.593-1.733h100c3.432.387 4.421.206 7.593 1.733a17.493 17.493 0 0 1 9.468 11.873c.291 1.273.293 2.596.439 3.894v72.751l2.5 2.5 37.626-37.625c1.021-.815 1.957-1.749 3.063-2.444a17.51 17.51 0 0 1 11.27-2.572c1.298.146 2.547.581 3.821.872l3.531 1.7 3.063 2.444 60 60c.815 1.021 1.749 1.957 2.444 3.063a17.51 17.51 0 0 1 1.7 15.091c-1.163 3.323-1.99 3.894-4.144 6.594L654.749 430l2.5 2.5H720c3.432.387 4.422.206 7.593 1.733a17.493 17.493 0 0 1 9.468 11.873c.291 1.273.293 2.596.439 3.894v100c-.146 1.298-.148 2.621-.439 3.894a17.497 17.497 0 0 1-9.468 11.873c-3.171 1.527-4.161 1.346-7.593 1.733h-62.751l-2.5 2.5 37.625 37.626c.815 1.021 1.749 1.957 2.444 3.063a17.51 17.51 0 0 1 1.7 15.091c-1.163 3.323-1.99 3.894-4.144 6.594l-60 60c-1.021.815-1.957 1.749-3.063 2.444a17.51 17.51 0 0 1-15.091 1.7c-3.323-1.163-3.894-1.99-6.594-4.144L570 654.749l-2.5 2.5V720c-.387 3.432-.206 4.421-1.733 7.593a17.541 17.541 0 0 1-4.856 6.089 17.5 17.5 0 0 1-7.017 3.379c-1.273.291-2.595.293-3.894.439zm-17.5-450h-65V350c-.112 1.138-.113 2.293-.336 3.414a17.517 17.517 0 0 1-2.613 6.308c-.636.951-1.451 1.768-2.177 2.652l-20 20c-2.7 2.154-3.271 2.981-6.594 4.144a17.57 17.57 0 0 1-3.821.872 17.51 17.51 0 0 1-11.27-2.572c-1.106-.695-2.042-1.629-3.063-2.444L380 344.749 344.749 380l37.625 37.626c.815 1.021 1.749 1.957 2.444 3.063a17.51 17.51 0 0 1 1.7 15.091c-1.163 3.323-1.99 3.894-4.144 6.594l-20 20c-.884.726-1.701 1.541-2.652 2.177a17.517 17.517 0 0 1-6.308 2.613c-1.121.223-2.275.224-3.414.336h-52.5v65H350c1.139.112 2.293.113 3.414.336a17.517 17.517 0 0 1 6.308 2.613c.951.636 1.768 1.451 2.652 2.177l20 20c.815 1.021 1.749 1.957 2.444 3.063a17.51 17.51 0 0 1 1.7 15.091c-1.163 3.323-1.99 3.894-4.144 6.594L344.749 620 380 655.251l37.626-37.625c1.021-.815 1.957-1.749 3.063-2.444a17.51 17.51 0 0 1 11.27-2.572c1.298.146 2.547.581 3.821.872l3.531 1.7 3.063 2.444 20 20c.726.884 1.541 1.701 2.177 2.652a17.517 17.517 0 0 1 2.613 6.308c.223 1.121.224 2.276.336 3.414v52.5h65V650c.112-1.138.113-2.293.336-3.414a17.517 17.517 0 0 1 2.613-6.308c.636-.951 1.451-1.768 2.177-2.652l20-20c2.7-2.154 3.271-2.981 6.594-4.144a17.51 17.51 0 0 1 15.091 1.7c1.106.695 2.042 1.629 3.063 2.444L620 655.251 655.251 620l-37.625-37.626c-.815-1.021-1.749-1.957-2.444-3.063a17.51 17.51 0 0 1-1.7-15.091c1.163-3.323 1.99-3.894 4.144-6.594l20-20c.884-.726 1.701-1.541 2.652-2.177a17.517 17.517 0 0 1 6.308-2.613c1.121-.223 2.276-.224 3.414-.336h52.5v-65H650c-1.138-.112-2.293-.113-3.414-.336a17.517 17.517 0 0 1-6.308-2.613c-.951-.636-1.768-1.451-2.652-2.177l-20-20c-2.154-2.7-2.981-3.271-4.144-6.594a17.51 17.51 0 0 1 1.7-15.091c.695-1.106 1.629-2.042 2.444-3.063L655.251 380 620 344.749l-37.626 37.625c-2.7 2.154-3.271 2.981-6.594 4.144a17.51 17.51 0 0 1-15.091-1.7c-1.106-.695-2.042-1.629-3.063-2.444l-20-20c-.726-.884-1.541-1.701-2.177-2.652a17.517 17.517 0 0 1-2.613-6.308c-.223-1.121-.224-2.276-.336-3.414v-62.5zm-31.454 110.032c.351.032.703.053 1.053.096a17.532 17.532 0 0 1 9.495 4.273c.264.234.513.483.77.725l85.01 85.01c.644.684.822.842 1.402 1.582a17.54 17.54 0 0 1 3.692 9.736 17.55 17.55 0 0 1-1.51 8.239 17.53 17.53 0 0 1-2.182 3.61c-.58.74-.758.898-1.402 1.582l-84.989 84.989c-.684.644-.842.822-1.582 1.402a17.536 17.536 0 0 1-9.736 3.692 17.554 17.554 0 0 1-8.239-1.51 17.53 17.53 0 0 1-3.61-2.182c-.74-.58-.898-.758-1.582-1.402l-85.01-85.01c-.644-.684-.822-.842-1.402-1.582a17.53 17.53 0 0 1-2.182-3.61 17.566 17.566 0 0 1-1.51-8.239 17.536 17.536 0 0 1 3.692-9.736c.58-.74.758-.898 1.402-1.582l84.989-84.989c.257-.242.506-.491.77-.725a17.547 17.547 0 0 1 10.548-4.369c.351-.021.704-.021 1.056-.032l1.057.032zm-61.297 102.457l60.262 60.262 60.24-60.24-60.262-60.262-60.24 60.24z"/></symbol><symbol id="icon_templates" viewbox="0 0 1000 1000"><path d="M184.586 668.286L55.7 539.4c-10.5-10.5-16.3-24.5-16.3-39.4 0-14.9 5.8-28.9 16.3-39.4L460.6 55.7c10.5-10.5 24.5-16.3 39.4-16.3 14.9 0 28.9 5.8 39.4 16.3l404.9 404.9c21.7 21.7 21.7 57.1 0 78.8L815.414 668.286a17.488 17.488 0 0 1-7.127 7.127L539.4 944.3c-10.5 10.5-24.5 16.3-39.4 16.3-14.9 0-28.9-5.8-39.4-16.3L191.714 675.414a17.488 17.488 0 0 1-7.128-7.128zM616.8 817.5H383.2l102.1 102.1c3.9 3.9 9.1 6.1 14.7 6.1s10.8-2.2 14.7-6.1l102.1-102.1zM348.341 217.359L217.359 348.341c.043.554.079 1.109.141 1.659v301.8l130.841 130.841c.554-.043 1.109-.079 1.659-.141h300l1.618.182L782.5 651.8V350c.059-.52.094-1.043.134-1.566L651.566 217.366c-.523.04-1.046.075-1.566.134H350c-.55-.062-1.105-.098-1.659-.141zM450 717.5H300c-1.017-.033-1.274-.017-2.284-.15a17.471 17.471 0 0 1-3.341-.779 17.551 17.551 0 0 1-6.749-4.197 17.551 17.551 0 0 1-4.197-6.749 17.471 17.471 0 0 1-.779-3.341c-.133-1.01-.117-1.267-.15-2.284V500c.033-1.017.017-1.274.15-2.284.149-1.136.411-2.257.779-3.341a17.551 17.551 0 0 1 4.197-6.749 17.551 17.551 0 0 1 6.749-4.197 17.471 17.471 0 0 1 3.341-.779c1.01-.133 1.267-.117 2.284-.15h150l1.145.037c1.012.1 1.27.1 2.269.299a17.526 17.526 0 0 1 8.96 4.79 17.551 17.551 0 0 1 4.197 6.749c.368 1.084.63 2.205.779 3.341.133 1.01.117 1.267.15 2.284v200c-.033 1.017-.017 1.274-.15 2.284a17.471 17.471 0 0 1-.779 3.341 17.551 17.551 0 0 1-4.197 6.749 17.551 17.551 0 0 1-6.749 4.197c-1.084.368-2.205.63-3.341.779-1.01.133-1.267.117-2.284.15zm250 0H550c-1.017-.033-1.274-.017-2.284-.15a17.471 17.471 0 0 1-3.341-.779 17.551 17.551 0 0 1-6.749-4.197 17.551 17.551 0 0 1-4.197-6.749 17.471 17.471 0 0 1-.779-3.341c-.133-1.01-.117-1.267-.15-2.284V500c.033-1.017.017-1.274.15-2.284.149-1.136.411-2.257.779-3.341a17.551 17.551 0 0 1 4.197-6.749 17.551 17.551 0 0 1 6.749-4.197 17.471 17.471 0 0 1 3.341-.779c1.01-.133 1.267-.117 2.284-.15h150l1.145.037c1.012.1 1.27.1 2.269.299 1.124.224 2.225.558 3.283.996a17.56 17.56 0 0 1 6.46 4.629 17.541 17.541 0 0 1 4.193 9.255c.133 1.01.117 1.267.15 2.284v200c-.033 1.017-.017 1.274-.15 2.284a17.471 17.471 0 0 1-.779 3.341 17.551 17.551 0 0 1-4.197 6.749 17.551 17.551 0 0 1-6.749 4.197c-1.084.368-2.205.63-3.341.779-1.01.133-1.267.117-2.284.15zm-382.5-200v165h115v-165h-115zm365 0h-115v165h115v-165zm-500-134.3L80.4 485.3c-3.9 3.9-6.1 9.2-6.1 14.7 0 5.6 2.2 10.8 6.1 14.7l102.1 102.1V383.2zm635 .1v233.5l102.1-102.1c8.1-8 8.1-21.2 0-29.3L817.5 383.3zM700 417.5H300c-3.432-.387-4.421-.206-7.593-1.733a17.541 17.541 0 0 1-6.089-4.856 17.5 17.5 0 0 1-3.379-7.017c-.291-1.273-.293-2.596-.439-3.894V300c.387-3.432.206-4.421 1.733-7.593a17.493 17.493 0 0 1 11.873-9.468c1.273-.291 2.596-.293 3.894-.439h400l3.894.439c1.233.431 2.522.727 3.699 1.294a17.493 17.493 0 0 1 9.468 11.873c.291 1.273.293 2.596.439 3.894v100c-.146 1.298-.148 2.621-.439 3.894a17.497 17.497 0 0 1-9.468 11.873c-3.172 1.527-4.161 1.346-7.593 1.733zm-17.5-100h-365v65h365v-65zm-65.8-135l-102-102c-3.9-3.9-9.2-6.1-14.7-6.1s-10.8 2.1-14.7 6L383.2 182.5h233.5z"/></symbol><symbol id="icon_users" viewbox="0 0 1000 1000"><path d="M944.3 460.6L539.4 55.7c-10.5-10.5-24.5-16.3-39.4-16.3-14.9 0-28.9 5.8-39.4 16.3L55.7 460.6c-10.5 10.5-16.3 24.5-16.3 39.4 0 14.9 5.8 28.9 16.3 39.4l404.9 404.9c10.5 10.5 24.5 16.3 39.4 16.3 14.9 0 28.9-5.8 39.4-16.3l404.9-404.9c21.7-21.7 21.7-57.1 0-78.8zm-471.536-63.1h-95.515L317.5 457.249v205.502l45 45V500c.146-1.298.148-2.621.439-3.894a17.497 17.497 0 0 1 9.468-11.873c3.172-1.527 4.161-1.346 7.593-1.733l3.894.439c1.233.431 2.522.727 3.699 1.294a17.493 17.493 0 0 1 9.468 11.873c.291 1.273.293 2.596.439 3.894v330c-.062.55-.098 1.105-.142 1.658L485.3 919.6c3.9 3.9 9.1 6.1 14.7 6.1s10.8-2.2 14.7-6.1l87.942-87.942c-.044-.553-.08-1.108-.142-1.658V500c.146-1.298.148-2.621.439-3.894a17.497 17.497 0 0 1 9.468-11.873c3.172-1.527 4.161-1.346 7.593-1.733l3.894.439c1.233.431 2.522.727 3.699 1.294a17.541 17.541 0 0 1 6.089 4.856 17.5 17.5 0 0 1 3.379 7.017c.291 1.273.293 2.596.439 3.894v207.751l45-45V457.249L622.751 397.5h-95.49l-14.874 14.874c-.743.696-.913.889-1.721 1.51a17.51 17.51 0 0 1-10.653 3.616 17.51 17.51 0 0 1-10.654-3.616c-.808-.621-.978-.814-1.721-1.51L472.764 397.5zM637.5 796.8l282.1-282.1c8.1-8 8.1-21.2 0-29.3L514.7 80.5c-3.9-3.9-9.2-6.1-14.7-6.1s-10.8 2.1-14.7 6L80.4 485.3c-3.9 3.9-6.1 9.2-6.1 14.7 0 5.6 2.2 10.8 6.1 14.7l282.1 282.1v-40.989a17.517 17.517 0 0 1-4.373-2.954c-.17-.158-.334-.322-.501-.483l-70-70-.001-.001a16.087 16.087 0 0 1-.462-.479l-.02-.021-.01-.012-.103-.112-.004-.005-.014-.016-.059-.065-.027-.031-.016-.017-.014-.017-.025-.027-.066-.076-.01-.011-.002-.003a5.544 5.544 0 0 1-.1-.116l-.011-.013-.017-.02-.035-.04-.043-.052-.018-.021-.007-.009a10.001 10.001 0 0 1-.097-.117l-.006-.008-.017-.02-.047-.058-.03-.037-.016-.02-.012-.015-.019-.024-.076-.096-.001-.001-.069-.089-.006-.008-.015-.019-.03-.039-.017-.022-.013-.017-.014-.018-.016-.021-.024-.032-.021-.027-.009-.013-.005-.006-.027-.036-.032-.044-.052-.071-.005-.006-.001-.001-.015-.021-.038-.052-.004-.005-.002-.003a17.529 17.529 0 0 1-2.28-4.305l-.001-.002-.001-.003-.02-.056-.011-.031-.001-.002-.003-.009-.026-.073-.031-.091-.004-.012h-.001l-.004-.013-.014-.041-.013-.038-.005-.016-.007-.021-.009-.028-.01-.028-.011-.034-.009-.027-.005-.016-.005-.016-.02-.061-.008-.024-.001-.005-.001-.004-.005-.016-.03-.092-.007-.023-.004-.014-.008-.025-.017-.055-.013-.044-.006-.022-.005-.017-.011-.035-.023-.078-.004-.016-.002-.005-.08-.286v-.002l-.001-.003-.023-.083-.015-.058-.001-.003v-.002c-.047-.178-.09-.356-.131-.535l-.009-.041a17.463 17.463 0 0 1-.43-3.852V450c.112-1.138.113-2.293.336-3.414a17.517 17.517 0 0 1 2.613-6.308c.636-.951 1.451-1.768 2.177-2.652l70-70c.884-.726 1.701-1.541 2.652-2.177a17.517 17.517 0 0 1 6.308-2.613c1.121-.223 2.276-.224 3.414-.336h67.764l-50.138-50.138c-.696-.743-.889-.913-1.51-1.721a17.51 17.51 0 0 1-3.616-10.653 17.51 17.51 0 0 1 3.616-10.654c.621-.808.814-.978 1.51-1.721l99.987-99.987c.279-.261.549-.532.836-.783a17.55 17.55 0 0 1 10.394-4.306c.381-.024.763-.025 1.145-.037l1.144.037c.38.038.761.063 1.14.113.757.099 1.507.249 2.245.446a17.569 17.569 0 0 1 6.124 3.02c.808.621.978.814 1.721 1.51l100.012 100.012c.696.743.889.913 1.51 1.721a17.51 17.51 0 0 1 3.616 10.654 17.51 17.51 0 0 1-3.616 10.653c-.621.808-.814.978-1.51 1.721L562.261 362.5H630l3.414.336c2.899.88 3.752.905 6.308 2.613.951.636 1.768 1.451 2.652 2.177l70 70c.726.884 1.541 1.701 2.177 2.652a17.517 17.517 0 0 1 2.613 6.308c.223 1.121.224 2.276.336 3.414v220.001a17.463 17.463 0 0 1-.43 3.853l-.009.04c-.04.178-.084.356-.13.532l-.001.005-.002.005-.014.056-.022.079-.002.007-.001.004c-.025.094-.052.189-.079.283l-.002.006-.006.021-.021.073-.01.033-.006.019-.007.024-.012.042-.016.051-.009.029-.005.016-.006.021-.027.085-.008.023-.001.006-.001.003-.005.015-.023.07-.006.019-.004.013-.008.023-.012.038-.011.032-.008.024-.006.018-.006.019-.015.044-.012.035-.004.011-.001.002-.017.05-.018.053-.023.064-.006.018-.002.005-.01.028-.019.052-.002.007-.002.006a17.548 17.548 0 0 1-2.277 4.299l-.004.005-.007.009-.035.048-.014.019-.002.003-.014.019-.043.058-.025.034-.034.046-.006.008-.008.011-.019.024-.026.035-.017.023-.013.016-.011.015-.019.024-.032.042-.013.016-.005.007a5.49 5.49 0 0 1-.07.09l-.005.006-.072.091-.018.022-.013.017-.018.022-.028.035-.043.052-.021.026-.008.01-.09.109-.012.015-.031.036-.029.035-.021.025-.032.037-.021.026-.005.005-.026.03-.061.071-.067.076-.007.009-.003.002c-.089.102-.18.202-.271.302l-.08.084a15.91 15.91 0 0 1-.383.397l-.02.02-70 70c-.167.161-.331.325-.501.483a17.517 17.517 0 0 1-4.373 2.954V796.8zM508.016 367.248l67.235-67.235-75.264-75.264-75.238 75.239 75.263 75.263 7.236-7.235c.248-.264.504-.52.768-.768z"/></symbol></svg>