<?xml version="1.0" encoding="UTF-8"?><!DOCTYPE svg PUBLIC "-//W3C//DTD SVG 1.1//EN" "http://www.w3.org/Graphics/SVG/1.1/DTD/svg11.dtd"><svg xmlns="http://www.w3.org/2000/svg" style="display:none"><symbol id="icon_analytics" viewbox="0 0 24 24"><path d="M7 24H1v-6h6v6zm8-9H9v9h6v-9zm8-4h-6v13h6V11zm0-11l-6 1.221 1.716 1.708-6.85 6.733L8.865 6.66l-7.841 7.797 1.41 1.418 6.427-6.39 2.991 2.993 8.28-8.137 1.667 1.66L23 0z"/></symbol><symbol id="icon_cross" viewbox="0 0 24 24"><path d="M24 20.188l-8.315-8.209 8.2-8.282L20.188 0l-8.212 8.318L3.666.115 0 3.781l8.321 8.24-8.206 8.313L3.781 24l8.237-8.318 8.285 8.203z"/></symbol><symbol id="icon_dashboard" viewbox="0 0 24 24"><path d="M20.043 10.76a8.95 8.95 0 0 0-.516-1.242l-2.454 1.106c.217.393.39.81.517 1.242l2.453-1.106zM7.471 9.856c.271-.354.579-.674.918-.957l-1.89-1.968a8.666 8.666 0 0 0-.919.957l1.891 1.968zm1.714-1.514c.38-.221.781-.396 1.198-.523L9.35 5.25a8.228 8.228 0 0 0-1.2.524l1.035 2.568zm-2.759 3.615c.121-.435.287-.854.498-1.25l-2.47-1.066a9.09 9.09 0 0 0-.498 1.25l2.47 1.066zm9.434-6.2a8.296 8.296 0 0 0-1.2-.519l-1.023 2.573c.418.125.82.299 1.2.519l1.023-2.573zm2.601 2.131a8.654 8.654 0 0 0-.918-.957l-1.891 1.968c.34.283.648.604.919.957l1.89-1.968zm-5.791-3.06a8.414 8.414 0 0 0-1.298 0v2.784a5.667 5.667 0 0 1 1.298 0V4.828zm-.649 13.782a2.344 2.344 0 0 1-1.133-4.394l1.133-5.309 1.133 5.309a2.343 2.343 0 0 1-1.133 4.394zM12 3c5.514 0 10 4.486 10 10 0 1.758-.458 3.5-1.303 5H16.27c-.41 1.047-1.645 3-4.27 3-2.656 0-3.859-1.953-4.27-3H3.303A10.247 10.247 0 0 1 2 13C2 7.486 6.486 3 12 3zm0-2C5.373 1 0 6.373 0 13c0 2.583.816 5.042 2.205 7h4.357c.93 1.647 3.015 3 5.438 3s4.508-1.353 5.438-3h4.357C23.184 18.042 24 15.583 24 13c0-6.627-5.373-12-12-12z"/></symbol><symbol id="icon_pages" viewbox="0 0 24 24"><path d="M15 2v5h5v15H4V2h11zm1-2H2v24h20V6l-6-6z"/></symbol><symbol id="icon_settings" viewbox="0 0 24 24"><path d="M24 14.187V9.813c-2.148-.766-2.726-.802-3.027-1.529-.303-.729.083-1.169 1.059-3.223l-3.093-3.093c-2.026.963-2.488 1.364-3.224 1.059-.727-.302-.768-.889-1.527-3.027H9.813c-.764 2.144-.8 2.725-1.529 3.027-.752.313-1.203-.1-3.223-1.059L1.968 5.061c.977 2.055 1.362 2.493 1.059 3.224-.302.727-.881.764-3.027 1.528v4.375c2.139.76 2.725.8 3.027 1.528.304.734-.081 1.167-1.059 3.223l3.093 3.093c1.999-.95 2.47-1.373 3.223-1.059.728.302.764.88 1.529 3.027h4.374c.758-2.131.799-2.723 1.537-3.031.745-.308 1.186.099 3.215 1.062l3.093-3.093c-.975-2.05-1.362-2.492-1.059-3.223.3-.726.88-.763 3.027-1.528zm-4.875.764c-.577 1.394-.068 2.458.488 3.578l-1.084 1.084c-1.093-.543-2.161-1.076-3.573-.49-1.396.581-1.79 1.693-2.188 2.877h-1.534c-.398-1.185-.791-2.297-2.183-2.875-1.419-.588-2.507-.045-3.579.488l-1.083-1.084c.557-1.118 1.066-2.18.487-3.58-.579-1.391-1.691-1.784-2.876-2.182v-1.533c1.185-.398 2.297-.791 2.875-2.184.578-1.394.068-2.459-.488-3.579l1.084-1.084c1.082.538 2.162 1.077 3.58.488 1.392-.577 1.785-1.69 2.183-2.875h1.534c.398 1.185.792 2.297 2.184 2.875 1.419.588 2.506.045 3.579-.488l1.084 1.084c-.556 1.121-1.065 2.187-.488 3.58.577 1.391 1.689 1.784 2.875 2.183v1.534c-1.188.398-2.302.791-2.877 2.183zM12 9c1.654 0 3 1.346 3 3s-1.346 3-3 3-3-1.346-3-3 1.346-3 3-3zm0-2c-2.762 0-5 2.238-5 5s2.238 5 5 5 5-2.238 5-5-2.238-5-5-5z"/></symbol><symbol id="icon_templates" viewbox="0 0 24 24"><path d="M24 10.935v2.131l-8 3.947v-2.23L21.64 12 16 9.21V6.987l8 3.948zM8 14.783L2.36 12 8 9.21V6.987l-8 3.948v2.131l8 3.947v-2.23zM15.047 4h-2.078L8.958 20h2.073l4.016-16z"/></symbol><symbol id="icon_users" viewbox="0 0 24 24"><path d="M10.119 16.064c2.293-.53 4.427-.994 3.394-2.946C10.366 7.177 12.678 4 16.001 4c3.388 0 5.643 3.299 2.488 9.119-1.065 1.964 1.149 2.427 3.393 2.946 1.985.458 2.118 1.428 2.118 3.107l-.003.828h-1.329c0-2.089.083-2.367-1.226-2.669-1.901-.438-3.695-.852-4.351-2.304-.239-.53-.395-1.402.226-2.543 1.372-2.532 1.719-4.726.949-6.017-.902-1.517-3.617-1.509-4.512-.022-.768 1.273-.426 3.479.936 6.05.607 1.146.447 2.016.206 2.543-.66 1.445-2.472 1.863-4.39 2.305-1.252.29-1.172.588-1.172 2.657H8.003c0-2.196-.176-3.406 2.116-3.936zM.002 20h1.329c0-1.918-.186-1.385 1.824-1.973 1.014-.295 1.91-.723 2.316-1.612.212-.463.355-1.22-.162-2.197-.952-1.798-1.219-3.374-.712-4.215.547-.909 2.27-.908 2.819.015C8.351 11.585 6.623 14 6.396 15h1.396c.44-1 1.206-2.208 1.206-3.9C8.998 9.09 7.686 8 6 8c-2.493 0-4.227 2.383-1.866 6.839.774 1.464-.826 1.812-2.545 2.209C.099 17.393 0 18.12 0 19.382L.002 20z"/></symbol></svg>